<svg preserveAspectRatio="none" overflow="visible" style="display: block;" width="7.82812" height="11.4316" viewBox="0 0 7.82812 11.4316" fill="none" xmlns="http://www.w3.org/2000/svg">
<path id="Lock" d="M1.125 11.4316H6.70312C7.45898 11.4316 7.82812 11.0566 7.82812 10.2363V5.93555C7.82812 5.19727 7.52344 4.81641 6.89648 4.75195V3.27539C6.89648 1.06641 5.44922 0 3.91406 0C2.37891 0 0.931641 1.06641 0.931641 3.27539V4.78125C0.357422 4.86914 0 5.24414 0 5.93555V10.2363C0 11.0566 0.369141 11.4316 1.125 11.4316ZM1.875 3.15234C1.875 1.68164 2.81836 0.902344 3.91406 0.902344C5.00977 0.902344 5.95312 1.68164 5.95312 3.15234V4.74609L1.875 4.75195V3.15234Z" fill="#9E9E9E"/>
</svg>
