<svg preserveAspectRatio="none" overflow="visible" style="display: block;" width="574.083" height="336.456" viewBox="0 0 574.083 336.456" fill="none" xmlns="http://www.w3.org/2000/svg">
<g id="Group 2147256485" opacity="0.35">
<line id="Line 94" x1="371.25" y1="76.4564" x2="371.25" y2="336.456" stroke="#FBC5AF" stroke-width="0.5"/>
<line id="Line 98" x1="151.013" y1="97.4004" x2="151.013" y2="133.729" stroke="#FBC5AF" stroke-width="0.5"/>
<line id="Line 108" x1="114.683" y1="97.4004" x2="114.683" y2="133.729" stroke="#FBC5AF" stroke-width="0.5"/>
<line id="Line 110" x1="114.433" y1="97.1504" x2="150.761" y2="97.1504" stroke="#FBC5AF" stroke-width="0.5"/>
<line id="Line 113" x1="114.433" y1="133.481" x2="150.761" y2="133.481" stroke="#FBC5AF" stroke-width="0.5"/>
<line id="Line 107" x1="180.437" y1="76.6978" x2="180.437" y2="163.159" stroke="#FBC5AF" stroke-width="0.5"/>
<line id="Line 117" x1="85.2416" y1="33.8461" x2="85.2416" y2="162.852" stroke="#FBC5AF" stroke-width="0.5"/>
<line id="Line 109" x1="150.94" y1="133.192" x2="180.366" y2="162.618" stroke="#FBC5AF" stroke-width="0.5"/>
<line id="Line 116" y1="-0.25" x2="41.6146" y2="-0.25" transform="matrix(-0.707107 0.707107 0.707107 0.707107 114.8 133.369)" stroke="#FBC5AF" stroke-width="0.5"/>
<line id="Line 114" x1="86.1407" y1="68.393" x2="114.977" y2="97.2296" stroke="#FBC5AF" stroke-width="0.5"/>
<line id="Line 115" x1="175.223" y1="73.2997" x2="150.94" y2="97.5831" stroke="#FBC5AF" stroke-width="0.5"/>
<line id="Line 96" x1="2.18557e-08" y1="162.91" x2="370.549" y2="162.91" stroke="#FBC5AF" stroke-width="0.5"/>
<line id="Line 118" x1="178" y1="336.206" x2="518" y2="336.206" stroke="#FBC5AF" stroke-width="0.5"/>
<line id="Line 95" x1="4.65488" y1="0.228199" x2="573.981" y2="254.965" stroke="#FBC5AF" stroke-width="0.5"/>
</g>
</svg>
