<svg preserveAspectRatio="none" overflow="visible" style="display: block;" width="379.8" height="5.56072" viewBox="0 0 379.8 5.56072" fill="none" xmlns="http://www.w3.org/2000/svg">
<g id="Vector 1" filter="url(#filter0_g_0_51)">
<path d="M9.39168 1.0245C17.299 0.706487 22.6964 1.08909 30.0318 1.16485C46.1797 1.334 67.4742 1.28411 83.9898 1.34201C96.4903 1.38432 109.192 1.44165 121.618 1.49243C122.255 1.49502 122.635 1.52669 122.924 1.52786C125.645 1.53882 130.207 1.52399 132.905 1.53555C138.582 1.55949 148.46 1.58253 153.659 1.62356C155.867 1.64089 158.132 1.65179 158.99 1.72133C159.797 1.72677 160.237 1.66717 160.448 1.66445C160.45 1.66452 160.453 1.66458 160.455 1.66465C161.134 1.65626 162.847 1.70319 163.225 1.7015C163.282 1.70123 162.934 1.65662 163.851 1.67227C163.933 1.67361 163.857 1.70308 164.63 1.7055C164.831 1.70606 167.414 1.66764 168.152 1.66696C170.609 1.66478 176.477 1.71552 179.414 1.72254C179.863 1.72372 180.122 1.7077 180.597 1.70868C180.842 1.70917 181.209 1.72825 181.284 1.72835C181.615 1.72852 183.058 1.65051 182.54 1.81075C184.048 1.8042 183.603 1.74987 183.638 1.71532C185.274 1.71482 186.063 1.79232 186.49 1.71351C194.536 1.74498 202.583 1.77589 210.63 1.80625C210.632 1.79398 210.634 1.78171 210.637 1.76943C213.008 1.82472 213.822 1.74456 215.176 1.81874C216.011 1.80545 216.846 1.79225 217.681 1.77915C239.138 1.88419 260.545 1.88789 281.76 1.94875C282.655 1.95126 282.879 1.97324 284.355 1.97738C285.986 1.9819 288.279 1.96372 290.427 1.97008C292.312 1.97562 295.093 2.00284 297.194 2.01152C297.669 2.01345 298.012 2.00149 298.065 2.00172C298.38 2.00309 298.395 2.02351 298.7 2.02491C299.064 2.02652 299.505 2.01266 299.926 2.01475C301.499 2.02238 303.213 2.02191 303.412 2.02281C304.372 2.02735 304.584 2.04744 304.662 2.04787C305.73 2.05309 305.33 2.03444 305.595 2.03618C306.974 2.04541 307.949 2.09129 309.838 2.05474C309.786 2.07064 309.735 2.08655 309.683 2.10248C311.128 2.11514 310.174 2.07017 310.469 2.06323C310.59 2.0607 313.7 2.07417 313.94 2.07555C314.775 2.08049 314.798 2.10149 314.87 2.10196C315.046 2.10304 317.148 2.08491 318.225 2.10584C319.5 2.1305 318 2.16881 318.316 2.17754C318.37 2.17899 319.704 2.17783 319.884 2.19136C320.081 2.20591 318.927 2.20301 318.945 2.20899C318.957 2.21314 320.874 2.24638 320.507 2.26509C320.211 2.28412 317.611 2.25361 317.06 2.26175C316.969 2.26311 317.141 2.28792 317.06 2.28866C316.737 2.29131 310.746 2.2805 310.472 2.27584C310.784 2.26504 311.096 2.25429 311.408 2.24357C310.993 2.24156 310.578 2.23955 310.163 2.23754C310.753 2.22962 311.343 2.22175 311.933 2.21394C311.056 2.11843 308.416 2.20727 308.308 2.25458C308.261 2.27643 309.874 2.33523 308.373 2.36537C308.601 2.37134 308.829 2.3773 309.057 2.38325C309.528 2.37481 309.999 2.36641 310.469 2.35806C310.156 2.35178 309.842 2.34548 309.529 2.33916C309.644 2.33282 309.76 2.32649 309.875 2.32017C310.755 2.31128 311.634 2.30248 312.514 2.29378C312.966 2.29942 312.872 2.31831 313.183 2.32256C317.06 2.37567 314.531 2.3124 317.069 2.32549C317.431 2.33625 317.794 2.34697 318.156 2.35765C318.028 2.31583 319.153 2.34391 320.512 2.32853C320.35 2.34159 320.187 2.35467 320.025 2.36777C321.995 2.36425 325.988 2.43709 324.91 2.36277C325.362 2.36975 325.813 2.3767 326.264 2.38362C326.646 2.37245 327.027 2.36133 327.408 2.35025C327.935 2.35255 328.461 2.35484 328.988 2.35712C328.991 2.36345 328.993 2.36978 328.995 2.37612C328.575 2.37543 328.155 2.37475 327.735 2.37407C328.05 2.39398 328.366 2.41383 328.681 2.43361C328.991 2.43087 329.301 2.42815 329.611 2.42543C328.311 2.40517 330.025 2.37809 330.44 2.35359C331.536 2.34626 332.237 2.38023 332.605 2.3823C332.777 2.38321 334.813 2.32959 334.015 2.39108C335.062 2.38521 336.11 2.37943 337.157 2.37374C337.566 2.37924 337.976 2.38471 338.385 2.39016C337.497 2.41762 340.072 2.45626 338.175 2.46539C336.758 2.47237 336.409 2.44475 335.736 2.4439C335.13 2.44311 334.81 2.46103 334.15 2.46092C329.714 2.45975 326.101 2.45136 321.888 2.43668C321.056 2.43374 320.299 2.44214 319.739 2.44001C319.108 2.43756 319.899 2.41434 319.095 2.41907C318.25 2.42408 318.068 2.44383 317.845 2.44391C317.706 2.44395 317.266 2.42529 316.861 2.42469C315.198 2.42219 312.76 2.43633 312.524 2.43593C312.257 2.43541 307.552 2.41193 307.327 2.40846C307.208 2.40665 307.455 2.33797 306.419 2.41002C306.095 2.41091 305.772 2.41181 305.448 2.41271C305.501 2.39893 305.553 2.38516 305.605 2.37139C303.689 2.42099 304.348 2.39266 302.501 2.39397C298.077 2.39745 291.552 2.37571 286.714 2.37355C285.634 2.37312 285.222 2.39021 283.944 2.38967C282.757 2.38923 279.657 2.33098 280.331 2.4063C277.689 2.33795 277.264 2.44919 275.942 2.37741C275.781 2.38739 275.621 2.39738 275.461 2.40738C274.026 2.36151 273.583 2.39943 272.015 2.40276C271.34 2.40421 272.118 2.358 270.755 2.40877C270.494 2.40451 270.234 2.40024 269.973 2.39595C270.034 2.38456 270.094 2.37317 270.155 2.3618C268.641 2.36898 268.543 2.36289 268.716 2.40622C267.985 2.39741 267.254 2.38855 266.523 2.37964C266.432 2.39376 266.341 2.40788 266.25 2.42202C266.6 2.44941 283.2 2.42958 285.512 2.421C288.223 2.45484 293.669 2.42433 295.859 2.4345C296.736 2.43851 297.123 2.46833 298.399 2.47339C299.674 2.4784 301.278 2.4541 301.957 2.45409C304.219 2.45396 314.936 2.47311 307.647 2.49917C307.857 2.51322 308.066 2.52723 308.276 2.54121C311.172 2.49745 310.124 2.52529 312.527 2.53262C313.538 2.53567 315.944 2.5084 315.81 2.56917C313.931 2.57876 311.936 2.55723 310.302 2.55644C310.14 2.55632 308.206 2.58297 307.21 2.57432C306.312 2.56644 306.931 2.50684 304.977 2.5725C303.526 2.50489 302.687 2.56409 302.303 2.57027C301.641 2.58083 301.568 2.5478 300.906 2.54327C300.185 2.53827 299.688 2.5598 299.59 2.55986C298.6 2.5594 293.448 2.55764 293.212 2.54371C293.419 2.5379 293.626 2.53211 293.833 2.52632C292.495 2.51524 292.775 2.55024 292.423 2.55407C292.161 2.55369 291.899 2.55332 291.637 2.55294C291.741 2.54582 291.845 2.5387 291.949 2.53158C290.368 2.53152 291.578 2.55786 289.334 2.5551C287.91 2.55338 286.439 2.52393 286.301 2.52584C286.26 2.5264 286.708 2.54574 286.127 2.54772C285.166 2.55098 283.504 2.54899 283.319 2.52281C282.848 2.52601 282.888 2.5515 282.825 2.55202C282.552 2.55422 277.85 2.5587 277.007 2.55952C274.673 2.56169 272.074 2.55381 269.545 2.55603C269.285 2.55625 269.451 2.53939 269.19 2.53969C268.772 2.54013 266.624 2.56508 266.303 2.56676C265.503 2.57077 263.396 2.55825 263.065 2.56585C263.018 2.56694 263.711 2.59088 262.9 2.59754C262.001 2.60493 262.485 2.57371 262.436 2.57336C260.605 2.56104 259.448 2.58213 258.198 2.58551C257.793 2.5866 257.045 2.56189 256.474 2.56855C256.408 2.56931 256.538 2.59174 256.474 2.59279C255.61 2.60392 254.801 2.56172 254.428 2.55867C253.513 2.5513 254.011 2.58253 253.963 2.58271C253.354 2.58324 252.534 2.57145 251.607 2.57219C247.476 2.57555 244.104 2.575 239.712 2.56949C239.161 2.56883 238.506 2.54563 238.422 2.54552C238.161 2.54548 238.236 2.57222 237.482 2.57105C235.892 2.56847 234.418 2.56865 232.844 2.56693C232.527 2.56659 232.392 2.54137 232.151 2.54062C231.34 2.53823 228.577 2.60251 228.531 2.5198C226.923 2.59174 225.855 2.52776 224.56 2.52725C221.494 2.52617 216.693 2.5376 213.636 2.52526C212.992 2.52262 212.691 2.50029 212.332 2.49877C211.69 2.49598 208.02 2.50516 207.828 2.50149C207.451 2.49445 207.677 2.39595 205.738 2.48012C204.602 2.48523 204.736 2.44465 204.501 2.44222C202.67 2.42382 200.888 2.51368 201.221 2.43006C199.088 2.45057 197.706 2.49634 196.836 2.4161C196.847 2.4548 195.844 2.47716 194.635 2.46121C195.873 2.39703 195.72 2.35536 198.713 2.37078C198.76 2.37102 198.67 2.3988 198.718 2.39904C199.145 2.40139 200.037 2.38834 200.765 2.39069C201.494 2.39302 201.089 2.4115 201.381 2.41146C201.648 2.41137 201.639 2.38487 202.025 2.38495C203.279 2.38535 204.388 2.37938 205.101 2.37976C205.55 2.38003 206.053 2.40364 206.402 2.40402C207.75 2.40529 210.606 2.39073 212.321 2.39523C212.678 2.39622 212.528 2.42147 213.31 2.42441C213.401 2.42475 213.735 2.39869 214.419 2.39403C215.104 2.38937 215.635 2.40305 216.074 2.40083C216.442 2.39899 216.288 2.3755 217.042 2.37497C217.67 2.37463 224.787 2.3998 225.173 2.40381C225.729 2.40971 225.993 2.44193 226.332 2.4384C226.392 2.43763 226.493 2.40694 226.7 2.40499C230.112 2.37287 237.664 2.42365 241.562 2.4276C249.712 2.43653 257.23 2.42848 265.451 2.43227C265.598 2.42764 265.744 2.42302 265.891 2.41841C265.06 2.41717 264.229 2.41593 263.398 2.41469C263.393 2.4016 263.387 2.38851 263.382 2.37542C262.259 2.37177 262.407 2.40302 262.439 2.42178C262.023 2.41331 261.607 2.40482 261.192 2.3963C260.833 2.44172 258.06 2.40777 256.631 2.40593C255.701 2.40472 254.595 2.42115 254.105 2.41918C253.069 2.41505 253.096 2.38609 253.014 2.38552C252.876 2.38466 251.43 2.40841 250.387 2.40615C248.845 2.40287 248.678 2.35744 246.567 2.39311C243.863 2.3661 240.866 2.37389 237.95 2.37412C238.505 2.33197 235.893 2.36907 234.715 2.36694C227.527 2.35341 218.692 2.32277 211.41 2.29423C210.474 2.29063 209.767 2.26241 209.245 2.26253C208.962 2.26256 208.839 2.29453 208.446 2.28972C208.377 2.28881 208.329 2.25866 207.599 2.25301C205.78 2.23867 201.249 2.28307 200.102 2.22244C193.883 2.22193 187.664 2.22183 181.444 2.22215C181.288 2.20879 181.132 2.19542 180.976 2.18203C179.794 2.2474 175.124 2.20106 172.846 2.20068C168.837 2.20034 163.722 2.2145 160.21 2.21193C159.447 2.21136 158.821 2.19042 158.099 2.18975C157.788 2.18949 157.402 2.21499 157.078 2.21468C153.446 2.21162 148.529 2.17729 144.869 2.17245C136.56 2.16166 128.734 2.14596 120.314 2.13475C91.9513 2.0963 63.7518 2.10257 35.6309 2.04417C35.254 2.04338 35.2728 2.00525 34.9806 2.00455C33.2559 2.00007 29.4044 2.02612 27.4565 2.02164C25.9045 2.01817 23.4412 1.95497 22.9071 2.01418C28.4207 2.1127 34.2459 2.11283 39.9856 2.14487C40.3937 2.14712 40.4444 2.18312 40.4947 2.18384C41.4239 2.19741 40.8371 2.14725 42.1846 2.1467C42.635 2.14673 46.7949 2.26527 46.3 2.15162C47.2962 2.19823 54.3189 2.22847 55.6741 2.21528C56.0857 2.21128 55.7943 2.17802 55.876 2.17645C56.2307 2.16963 56.3909 2.21517 56.708 2.2167C57.5531 2.22045 59.7026 2.18636 60.111 2.18715C61.0507 2.18874 63.868 2.22855 65.1088 2.22138C66.2461 2.21489 66.0332 2.16812 67.0165 2.16511C67.7916 2.16284 66.9473 2.20087 68.6777 2.21469C69.5353 2.22142 72.5354 2.19727 73.2645 2.1982C73.9934 2.19911 74.8043 2.22749 75.8096 2.22656C77.2577 2.22528 80.408 2.2139 81.8817 2.20707C81.9696 2.20668 82.184 2.17183 82.4008 2.17285C82.8498 2.1749 82.7149 2.21805 83.054 2.22285C83.3932 2.22763 89.2687 2.2294 90.2666 2.2311C90.9545 2.23215 91.4294 2.20735 91.8095 2.20806C92.1078 2.20867 92.1397 2.24415 92.444 2.2449C92.5383 2.245 93.34 2.21524 94.1412 2.21696C94.8981 2.21866 97.7722 2.25116 98.1051 2.25179C98.3219 2.25216 98.0842 2.22699 98.7251 2.22837C99.3092 2.2297 99.6929 2.26239 100.026 2.26324C100.798 2.26516 101.662 2.2388 102.481 2.23968C104.838 2.24222 104.716 2.28155 104.858 2.283C105.25 2.287 105.407 2.25104 105.536 2.25045C106.079 2.24807 107.41 2.24303 107.895 2.24223C108.498 2.24124 108.753 2.27567 109.394 2.27652C109.872 2.27703 110.836 2.24501 111.926 2.24477C114.383 2.24397 117.304 2.24143 119.717 2.24569C120.437 2.24694 120.547 2.27747 120.767 2.27851C121.923 2.28402 122.57 2.25093 122.9 2.2518C125.253 2.25789 129.45 2.31543 131.633 2.32214C132.523 2.32484 136.415 2.30535 138.611 2.31219C138.862 2.31292 138.627 2.3356 138.907 2.33232C139.575 2.32445 139.513 2.27776 139.853 2.27959C140.016 2.28062 140.39 2.30732 140.866 2.31048C143.339 2.32683 145.039 2.3085 146.167 2.31125C156.999 2.33738 168.045 2.36126 178.161 2.37624C179.289 2.37784 180.688 2.35418 182.39 2.38059C182.443 2.3938 182.495 2.40701 182.547 2.42022C182.607 2.40735 182.667 2.3945 182.726 2.38164C184.655 2.37676 185.384 2.36115 187.354 2.37968C187.523 2.38127 188.041 2.44105 188.361 2.36784C190.312 2.42327 189.242 2.36839 190.69 2.36517C192.138 2.36196 193.546 2.37987 194.95 2.38508C195.719 2.41174 192.49 2.46843 192.279 2.46816C191.94 2.46763 191.588 2.43102 191.261 2.42874C190.294 2.42195 189.358 2.44996 189.142 2.41717C187.891 2.45036 189.448 2.43472 189.291 2.46557C188.457 2.45197 187.623 2.43829 186.788 2.42453C186.363 2.53045 181.753 2.38703 182.073 2.46881C181.706 2.45212 181.34 2.43539 180.973 2.41862C179.365 2.5199 178.419 2.44688 176.274 2.41367C176.428 2.42711 176.583 2.44054 176.738 2.45396C176.694 2.45945 174.801 2.47903 175.478 2.42293C173.537 2.49598 173.618 2.37118 171.878 2.45998C170.845 2.47068 171.466 2.41858 169.616 2.41763C168.52 2.41702 167.158 2.44349 165.933 2.44433C165.651 2.44443 165.528 2.4134 165.277 2.41315C165.026 2.41291 164.904 2.44314 164.599 2.44363C163.971 2.44471 163.157 2.42257 162.764 2.42424C162.412 2.42565 161.909 2.45212 161.061 2.45563C158.099 2.46807 158.994 2.43013 158.526 2.41655C158.023 2.40208 157.662 2.45292 156.66 2.4461C156.56 2.44538 156.82 2.41364 156.493 2.41458C156.229 2.4153 156.097 2.44997 155.224 2.45572C154.876 2.45801 149.481 2.46088 148.659 2.46085C147.399 2.46079 144.593 2.42819 143.289 2.42715C142.786 2.42668 142.249 2.455 141.716 2.45437C139.947 2.45221 137.115 2.44733 134.872 2.44396C132.852 2.44108 129.306 2.37242 128.2 2.43049C125.364 2.43575 124.675 2.38423 124.461 2.3833C123.883 2.38082 123.615 2.41437 122.887 2.41529C113.446 2.42673 101.014 2.39298 92.0734 2.38752C71.3326 2.37541 50.4787 2.37904 29.6656 2.34476C29.6098 2.36261 29.5541 2.38047 29.4983 2.39834C31.9582 2.41186 34.8492 2.44487 37.2777 2.45355C40.5198 2.46475 45.3292 2.39606 47.7073 2.51624C46.7429 2.5261 45.1716 2.47951 45.1998 2.54075C46.9239 2.54608 48.648 2.55137 50.3721 2.55661C50.3206 2.52857 50.2692 2.50051 50.2178 2.47245C52.0179 2.46553 53.8591 2.4729 55.6655 2.47016C55.9793 2.46972 55.757 2.44438 56.0303 2.44445C56.336 2.44459 56.1287 2.47005 56.186 2.4703C56.9587 2.47108 57.192 2.44538 57.2862 2.44582C57.5281 2.44702 57.34 2.47151 58.0375 2.47887C59.3313 2.49257 60.2577 2.42812 59.9538 2.53635C60.3715 2.53659 60.7892 2.53683 61.2069 2.53707C61.3151 2.50768 61.4232 2.47831 61.5313 2.44895C64.1006 2.5692 65.2853 2.36279 66.7051 2.52783C67.1733 2.50309 67.6414 2.47842 68.1095 2.45381C68.3734 2.48308 68.6373 2.51231 68.9012 2.5415C68.9526 2.51661 69.004 2.49173 69.0555 2.46685C71.5779 2.48695 74.2637 2.45909 76.6762 2.46376C78.3567 2.46697 78.7593 2.47691 80.2479 2.47613C83.5591 2.47427 80.2709 2.52047 83.0223 2.5741C82.879 2.54428 82.7358 2.51443 82.5926 2.48455C83.0482 2.47396 83.5039 2.4634 83.9595 2.45287C84.2768 2.47733 84.594 2.50175 84.9112 2.52612C86.3184 2.40177 87.2301 2.5036 87.4217 2.50362C87.5765 2.50346 88.1081 2.42892 89.7735 2.49353C89.0829 2.39077 91.0439 2.4939 91.201 2.49452C91.3503 2.49502 93.2596 2.47366 94.0345 2.47521C94.644 2.4764 95.9443 2.49909 96.852 2.49864C97.6535 2.49824 97.5722 2.46401 97.6307 2.4637C98.6172 2.46161 97.999 2.48768 98.7122 2.48949C99.4253 2.49128 99.9786 2.46268 100.132 2.4654C100.21 2.46683 99.951 2.49833 100.306 2.50164C101.258 2.51061 102.979 2.48416 104.069 2.48581C104.455 2.48635 104.942 2.51333 105.373 2.51443C106.032 2.51601 106.34 2.48096 106.724 2.4823C106.857 2.48288 107.708 2.53783 108.765 2.53014C108.967 2.52852 109.558 2.4146 110.343 2.57715C110.404 2.55439 110.464 2.53164 110.525 2.50889C114.072 2.45543 115.059 2.63936 116.636 2.47797C119.211 2.498 117.443 2.5597 117.726 2.5696C117.908 2.57581 118.748 2.55898 118.84 2.56002C119.004 2.56205 118.976 2.58222 119.155 2.58221C122.438 2.58028 120.98 2.54153 122.02 2.51819C124.492 2.46302 126.421 2.59045 122.121 2.54988C122.121 2.56107 122.121 2.57226 122.121 2.58345C123.18 2.57336 125.868 2.57995 124.97 2.63587C124.263 2.67998 117.886 2.64862 121.498 2.71269C122.318 2.72708 122.743 2.68541 124.163 2.76419C125.102 2.76855 125.237 2.66728 126.509 2.70832C126.3 2.67299 126.091 2.63761 125.881 2.60219C127.616 2.55718 129.755 2.61985 131.087 2.60086C131.54 2.59427 133.17 2.42941 132.79 2.59507C133.551 2.5852 137.135 2.61748 137.801 2.60307C137.961 2.59957 138.169 2.5124 140.487 2.54439C140.648 2.55539 140.809 2.56638 140.97 2.57735C138.85 2.60786 142.594 2.64191 141.577 2.72365C141.232 2.68662 139.551 2.66334 139.28 2.64452C138.818 2.6121 140.194 2.57142 138.441 2.58171C137.336 2.71969 140.495 2.65729 140.013 2.78808C142.314 2.7274 142.544 2.7857 143.065 2.78811C145.292 2.79818 146.694 2.78468 148.796 2.79995C149.308 2.77373 145.503 2.73468 145.032 2.74598C146.766 2.65231 143.781 2.64673 142.522 2.7026C142.416 2.6739 142.31 2.64517 142.204 2.61643C143.844 2.63283 145.444 2.64138 147.068 2.61889C147.174 2.62956 147.28 2.64022 147.385 2.65087C147.021 2.66668 146.657 2.68253 146.292 2.69842C147.643 2.72501 146.833 2.64211 148.633 2.71507C148.688 2.68323 148.744 2.6514 148.8 2.61958C150.525 2.63103 152.251 2.64235 153.977 2.65356C154.875 2.59084 158.195 2.61625 157.587 2.69692C158.927 2.70312 157.273 2.65935 158.529 2.6402C159.075 2.63191 160.144 2.63007 160.408 2.65187C160.294 2.72851 158.695 2.73762 158.212 2.79052C158.505 2.80745 165.94 2.75419 165.277 2.84284C165.871 2.85352 165.598 2.80779 166.669 2.79626C169.669 2.76457 174.316 2.85349 176.732 2.7433C173.895 2.68092 173.056 2.7459 170.882 2.74816C169.493 2.74952 161.027 2.75847 162.918 2.67819C162.607 2.68832 162.296 2.69846 161.985 2.70863C161.671 2.68447 161.356 2.66026 161.042 2.636C161.928 2.63295 162.814 2.62993 163.7 2.62693C163.911 2.65095 164.123 2.67493 164.334 2.69887C164.432 2.68186 164.529 2.66486 164.627 2.64787C165 2.64466 165.373 2.64146 165.746 2.63827C165.641 2.65864 165.536 2.67903 165.431 2.69943C166.006 2.70312 166.581 2.7068 167.156 2.71046C167.001 2.68321 166.847 2.65593 166.692 2.62862C169.399 2.62314 168.482 2.63979 169.984 2.69096C171.105 2.69658 169.211 2.64379 171.583 2.63179C174.341 2.61797 172.531 2.69909 176.103 2.68297C176.155 2.6697 176.206 2.65643 176.258 2.64316C177.043 2.65683 177.828 2.67043 178.614 2.68395C178.51 2.66748 178.406 2.65099 178.302 2.63449C179.923 2.6416 182.157 2.61171 182.695 2.67581C181.051 2.64426 181.068 2.75623 181.495 2.77686C182.377 2.81909 195.406 2.78173 197.932 2.77987C201.161 2.77718 203.602 2.81122 206.552 2.75994C204.553 2.71686 197.523 2.74997 196.191 2.71957C196.059 2.71661 196.096 2.61749 195.248 2.72871C192.515 2.70886 189.248 2.73971 185.834 2.73558C185.938 2.7064 186.042 2.67724 186.147 2.64811C188.245 2.71087 190.188 2.57637 189.914 2.68869C190.332 2.68886 190.75 2.68902 191.167 2.68918C191.167 2.66988 191.167 2.65058 191.167 2.63128C191.797 2.63162 192.427 2.63195 193.056 2.63228C193.056 2.65149 193.056 2.6707 193.056 2.68992C193.578 2.69012 194.099 2.69032 194.621 2.69052C194.675 2.67146 194.73 2.65241 194.784 2.63336C196.346 2.67352 201.669 2.57138 199.329 2.68284C200.062 2.68314 200.796 2.68345 201.529 2.68375C201.527 2.66999 201.525 2.65623 201.522 2.64247C201.837 2.64078 202.153 2.6391 202.468 2.63742C202.364 2.64979 202.26 2.66217 202.157 2.67456C203.602 2.65303 204.971 2.71867 205.92 2.67636C205.294 2.66678 204.669 2.65716 204.043 2.6475C205.243 2.6658 207.454 2.63028 207.652 2.63036C208.255 2.63052 208.573 2.65803 209.227 2.65972C209.816 2.66118 209.735 2.64021 209.845 2.641C213.027 2.66405 211.814 2.77568 213.3 2.6433C213.458 2.66155 213.616 2.67977 213.774 2.69798C213.985 2.68292 214.196 2.6679 214.406 2.65289C215.346 2.65479 216.285 2.65667 217.225 2.65855C216.912 2.63592 216.598 2.61323 216.285 2.59049C217.693 2.58143 218.35 2.62683 218.487 2.62791C218.873 2.63074 219.049 2.60269 219.169 2.60272C224.909 2.60872 221.422 2.63154 224.291 2.73717C225.313 2.6966 224.279 2.65526 224.133 2.61344C225.493 2.6338 225.918 2.62251 227.353 2.62568C227.727 2.62653 228.128 2.64901 228.364 2.64943C228.568 2.64979 229.206 2.62656 229.697 2.62677C230.513 2.62709 231.6 2.6417 232.719 2.64196C233.649 2.6421 236.495 2.62736 238.481 2.62843C239.328 2.62895 239.132 2.64802 239.35 2.64818C239.441 2.64823 240.102 2.62565 240.645 2.62591C245.078 2.6282 249.621 2.64513 254.076 2.64723C257.214 2.64874 260.403 2.63318 263.548 2.63696C264.217 2.63778 263.863 2.65329 264.155 2.65402C264.255 2.65421 264.376 2.62687 265.411 2.63854C265.785 2.64273 265.355 2.66159 265.722 2.66275C265.901 2.6633 265.977 2.63939 267.023 2.63462C268.923 2.62596 269.945 2.65819 270.115 2.65731C270.434 2.65568 270.341 2.63608 270.765 2.63565C272.838 2.63355 274.569 2.63141 276.419 2.63104C277.283 2.63082 283.239 2.63103 283.567 2.63463C284.298 2.64261 283.617 2.68137 284.556 2.68053C284.819 2.67078 285.082 2.66105 285.344 2.65134C284.927 2.64358 284.509 2.63579 284.091 2.62797C285.241 2.64132 286.545 2.62446 287.396 2.62576C287.554 2.62604 289.001 2.64455 289.74 2.6431C289.426 2.65012 289.112 2.65717 288.798 2.66423C288.909 2.67048 289.02 2.67672 289.131 2.68296C290.607 2.67438 292.169 2.67554 293.683 2.67768C294.229 2.67843 294.045 2.6931 294.598 2.69389C297.817 2.69837 297.004 2.63798 300.101 2.75254C299.056 2.74191 295.24 2.75514 294.685 2.75118C294.299 2.74849 292.8 2.65018 293.35 2.75063C290.259 2.74918 292.944 2.69462 290.057 2.70549C290.114 2.71787 290.172 2.73025 290.23 2.74262C289.222 2.75006 288.477 2.75617 287.865 2.73399C287.66 2.79428 284.235 2.75812 282.357 2.7616C279.642 2.76669 276.576 2.78118 273.887 2.78338C272.96 2.78413 272.435 2.75921 272.319 2.75924C272.149 2.75937 271.672 2.78101 271.333 2.78111C270.067 2.78163 266.215 2.74315 265.257 2.80458C272.79 2.8056 280.324 2.80662 287.858 2.80763C286.91 2.77907 294.531 2.77813 294.918 2.7796C295.275 2.78092 294.974 2.80026 295.081 2.80146C295.872 2.80987 296.548 2.78195 296.799 2.78203C296.991 2.78208 297.378 2.79527 298.06 2.7951C298.185 2.79508 298.219 2.78127 298.354 2.78126C299.243 2.78146 300.121 2.78185 301.013 2.78198C301.067 2.78213 301.292 2.80216 301.517 2.80223C301.743 2.80226 301.967 2.78237 302.024 2.78233C302.737 2.78265 303.959 2.79579 304.638 2.79604C304.873 2.79608 304.71 2.78158 304.974 2.78178C305.784 2.78232 305.517 2.81049 306.52 2.80338C306.856 2.80099 306.834 2.77948 307.477 2.78247C307.933 2.78459 307.883 2.82277 307.956 2.82416C308.056 2.8258 309.628 2.79599 310.142 2.8209C309.018 2.88638 311.371 2.82431 311.258 2.79688C311.881 2.80393 312.504 2.81093 313.127 2.81789C313.339 2.81098 313.551 2.80409 313.764 2.79722C316.277 2.8287 317.811 2.8102 320.283 2.81995C320.402 2.82046 322.486 2.83559 322.388 2.84499C321.141 2.8612 319.897 2.86216 319.099 2.83174C317.786 2.88967 317.764 2.84352 315.643 2.85118C314.933 2.85382 314.882 2.86977 314.801 2.86997C312.04 2.878 307.617 2.88591 305.757 2.83777C305.235 2.85078 307.11 2.8559 306.381 2.86546C305.984 2.87063 296.416 2.88704 299.473 2.83033C299.155 2.83188 298.838 2.83343 298.521 2.83498C298.204 2.88849 296.626 2.87649 296.805 2.8228C296.656 2.83376 296.506 2.84474 296.357 2.85573C296.061 2.86503 295.712 2.87004 295.222 2.87304C293.345 2.8846 282.18 2.86631 281.587 2.87429C281.573 2.88764 281.56 2.90099 281.546 2.91434C286.479 2.92812 291.264 2.89517 296.642 2.93058C296.486 2.91868 296.33 2.90677 296.174 2.89484C298.32 2.91127 300.466 2.92736 302.612 2.9431C300.34 2.96489 296.727 2.98471 294.342 2.96774C293.918 2.96471 294.229 2.94781 294.132 2.94581C293.877 2.94061 293.604 2.96982 292.69 2.97304C291.775 2.97629 289.479 2.95626 289.268 2.95688C288.862 2.9582 287.767 2.99256 287.076 2.99247C286.168 2.99228 286.777 2.9709 286.595 2.97053C285.841 2.96873 285.165 2.97949 284.574 2.97816C283.698 2.97627 281.877 2.93914 281.264 2.9948C281.89 2.99706 282.516 2.9993 283.143 3.00152C279.746 3.02326 277.091 2.95255 273.745 3.00967C272.985 3.07887 275.75 3.06766 273.412 3.09863C273.837 3.09733 274.261 3.09603 274.686 3.09474C274.785 3.08032 274.884 3.06592 274.984 3.05153C275.715 3.06132 276.446 3.07104 277.177 3.0807C276.969 3.06816 276.76 3.05559 276.551 3.043C279.143 3.03184 281.761 3.0179 282.665 3.08428C282.719 3.06803 282.772 3.05179 282.825 3.03555C285.232 3.05361 288.844 2.98391 288.169 3.07299C288.283 3.06821 288.397 3.06344 288.511 3.05867C289.966 3.07578 289.344 3.03964 289.891 3.0352C290.047 3.034 292.874 3.05096 291.621 3.0778C294.379 3.09557 293.529 3.01473 294.289 3.01076C296.055 3.04993 299.23 2.98819 297.895 3.05189C298.158 3.05408 298.421 3.05626 298.684 3.05844C299.548 3.00857 300.4 3.06386 301.336 3.08158C301.653 3.08245 301.97 3.08331 302.287 3.08417C302.5 3.06759 302.712 3.05105 302.925 3.03454C305.909 3.11009 304.964 2.89935 306.328 3.07586C306.115 3.08661 305.903 3.09739 305.69 3.10819C305.187 3.11367 304.683 3.11917 304.179 3.1247C306.211 3.12756 308.243 3.13032 310.274 3.13299C312.853 3.1792 314.321 3.12508 317.186 3.16015C317.454 3.15532 317.722 3.15051 317.99 3.1457C317.717 3.1845 316.676 3.18015 318.615 3.19512C318.78 3.22208 317.471 3.22737 316.874 3.20712C316.73 3.20215 317.954 3.17981 316.579 3.18065C315.643 3.1812 317.342 3.21213 314.54 3.20331C314.644 3.20992 314.747 3.21652 314.851 3.22312C314.547 3.22332 314.244 3.22351 313.94 3.2237C313.67 3.20842 313.4 3.1931 313.13 3.17773C312.435 3.20113 312.045 3.23349 310.459 3.22875C310.889 3.21831 310.305 3.1873 309.52 3.18871C309.52 3.20018 309.52 3.21166 309.52 3.22314C307.62 3.23297 308.276 3.19824 306.696 3.22669C306.537 3.21768 306.379 3.20865 306.221 3.19961C305.36 3.23854 302.191 3.26906 302.769 3.2106C301.88 3.26772 300.013 3.2451 299.318 3.20048C299.265 3.21233 299.212 3.22419 299.158 3.23605C298.789 3.23891 298.419 3.24177 298.05 3.24465C297.843 3.23775 297.637 3.23084 297.431 3.22391C297.169 3.23141 296.907 3.23892 296.645 3.24645C296.487 3.23472 296.329 3.22297 296.171 3.2112C295.75 3.22602 295.329 3.24089 294.908 3.25583C294.65 3.24659 294.392 3.23732 294.135 3.22803C294.108 3.25311 291.556 3.26213 290.843 3.24638C290.63 3.25402 290.418 3.26168 290.205 3.26935C290.102 3.25738 289.998 3.24541 289.894 3.23343C289.736 3.24331 289.578 3.2532 289.419 3.26311C289.055 3.25388 288.691 3.24462 288.326 3.23533C286.841 3.29694 286.793 3.24459 286.453 3.24533C285.824 3.24673 283.682 3.2873 283.324 3.2859C282.967 3.28442 282.794 3.26286 282.505 3.26117C277.746 3.23269 279.702 3.28919 278.748 3.29987C278.232 3.30569 277.868 3.28556 277.412 3.28845C276.633 3.29322 272.703 3.32628 272.476 3.32395C272.147 3.32047 272.922 3.22058 271.852 3.24735C271.817 3.30061 269.528 3.24976 270.598 3.32284C269.655 3.31763 268.712 3.31236 267.77 3.30704C267.877 3.37073 266.714 3.33137 265.448 3.33669C263.654 3.34409 259.615 3.39311 259.763 3.32582C259.333 3.34182 258.903 3.35787 258.474 3.37399C255.533 3.35713 252.649 3.38369 249.731 3.38904C241.07 3.4048 231.673 3.40375 223.052 3.40144C222.638 3.40132 222.697 3.37698 222.399 3.37685C220.831 3.37627 216.756 3.39927 214.56 3.39693C213.857 3.3962 213.514 3.37244 213.291 3.37162C212.534 3.36868 212.713 3.40043 212.364 3.4C211.814 3.39936 208.905 3.37345 207.903 3.37155C207.407 3.37062 206.82 3.39719 206.239 3.39002C206.189 3.38943 206.281 3.36269 206.239 3.36228C205.18 3.36038 205.817 3.3826 205.459 3.38186C202.905 3.37657 200.175 3.37958 197.404 3.37756C196.716 3.37703 195.663 3.35913 195.072 3.35802C194.847 3.35766 195.251 3.37791 194.472 3.37719C194.206 3.37695 194.115 3.35 193.813 3.34861C192.516 3.34269 192.082 3.43075 190.967 3.36176C188.815 3.36899 185.069 3.3965 183.106 3.3996C182.641 3.40029 182.415 3.38414 181.972 3.38499C181.658 3.38558 181.105 3.41181 180.615 3.41279C180.125 3.41374 179.352 3.39035 178.409 3.39242C177.417 3.39456 176.183 3.41075 175.959 3.41097C175.689 3.41132 175.563 3.38036 175.293 3.38108C174.476 3.38305 172.289 3.41656 171.237 3.42133C170.106 3.42637 169.427 3.41197 169.041 3.41276C168.683 3.41364 168.265 3.44089 168.102 3.44135C167.848 3.4421 167.788 3.41094 167.465 3.41161C166.937 3.41278 166.393 3.43319 165.602 3.43478C151.351 3.46357 137.379 3.4651 123.515 3.45737C121.97 3.45648 121.096 3.48185 118.819 3.4737C117.895 3.47035 118.284 3.43394 117.566 3.44161C117.245 3.44507 117.326 3.47325 116.921 3.47514C115.13 3.4834 113.044 3.45959 112.268 3.46097C111.96 3.46148 111.608 3.49441 110.977 3.49572C106.275 3.50559 100.711 3.50354 95.6495 3.51592C92.9696 3.52246 88.9126 3.5451 85.837 3.55159C77.3391 3.56955 68.1972 3.57385 60.447 3.58781C48.7444 3.60845 37.098 3.65984 25.4205 3.63424C30.8837 3.71903 38.3231 3.69945 44.4052 3.70014C61.9732 3.70047 80.6787 3.62187 98.6833 3.59792C104.948 3.58921 112.846 3.57601 119.704 3.5836C120.015 3.58391 120.66 3.55841 121.332 3.56003C121.475 3.56046 123.246 3.60239 123.843 3.60187C123.277 3.52368 125.615 3.59063 126.337 3.58753C127.248 3.58359 129.149 3.5417 131.282 3.56058C133.217 3.57756 132.683 3.60814 132.79 3.60987C133.474 3.62084 133.713 3.57244 134.238 3.56682C136.38 3.54435 147.401 3.55531 150.477 3.55206C151.272 3.55127 151.294 3.5806 151.473 3.58042C151.948 3.57983 152.623 3.54982 153.382 3.54886C154.752 3.54721 156.33 3.57217 157.084 3.57104C158.887 3.56838 162.309 3.53096 164.653 3.52683C165.312 3.52564 165.272 3.55532 165.57 3.55474C166.883 3.55204 170.304 3.51206 171.935 3.50936C174.583 3.50489 177.307 3.51933 180 3.50571C180.17 3.51822 180.341 3.53071 180.511 3.54319C180.781 3.52937 181.05 3.51556 181.319 3.50179C185.871 3.50484 190.505 3.46948 195.032 3.46466C195.554 3.46412 198.136 3.48365 198.566 3.48304C198.924 3.48248 199.277 3.45173 199.808 3.45539C200.551 3.46044 199.852 3.51891 201.067 3.50056C201.393 3.49561 201.076 3.47159 201.733 3.46296C201.949 3.46006 206.157 3.44391 206.383 3.44527C206.76 3.44755 207.096 3.49878 207.193 3.49972C207.699 3.50473 207.678 3.46511 208.017 3.46098C209.018 3.44866 210.326 3.4732 210.488 3.47234C212.455 3.46186 216.131 3.42532 218.195 3.4405C218.481 3.44261 218.447 3.47139 218.497 3.47224C218.82 3.47766 219.021 3.44467 219.329 3.44345C220.985 3.43727 223.577 3.45509 225.242 3.45788C225.434 3.45816 225.839 3.44208 226.181 3.44305C228.116 3.44868 227.489 3.47428 227.598 3.47518C227.859 3.47735 228.318 3.44945 229.012 3.44669C230.799 3.43939 234.227 3.43788 236.144 3.43689C237.579 3.43627 237.558 3.46659 237.652 3.46703C237.853 3.46778 238.412 3.44268 239.358 3.43845C241.176 3.43018 240.969 3.45411 241.717 3.45185C241.78 3.45175 241.67 3.42887 242.5 3.42519C244.102 3.41816 247.701 3.43481 249.417 3.43079C250.076 3.42929 250.231 3.40734 250.906 3.40588C251.977 3.40351 254.394 3.42292 254.585 3.42251C254.638 3.42242 254.758 3.39757 255.072 3.39709C255.418 3.39656 255.758 3.40868 256.015 3.40818C257.482 3.40542 260.009 3.35905 259.307 3.44698C259.777 3.42473 260.247 3.40257 260.717 3.38049C263.79 3.38 266.775 3.3669 269.819 3.3581C270.504 3.35614 271.075 3.37117 271.653 3.36949C272.231 3.36776 274.78 3.33782 275.206 3.33675C275.966 3.33478 280.287 3.32575 280.824 3.32678C281.873 3.32877 282.891 3.36067 283.319 3.35344C283.661 3.34766 283.344 3.32932 283.998 3.32304C285.129 3.31222 287.051 3.33337 287.396 3.33244C287.544 3.33206 287.268 3.31798 288.649 3.31492C289.394 3.31325 289.794 3.3285 290.064 3.32801C290.148 3.3278 290.022 3.30232 291.496 3.30365C292.514 3.30461 292.948 3.32358 293.055 3.32349C293.215 3.32337 293.602 3.30189 294.246 3.3017C295.751 3.3014 298.502 3.32097 299.931 3.32049C300.208 3.32042 300.114 3.29585 301.216 3.29652C302.005 3.297 301.867 3.31673 302.162 3.31706C302.63 3.31753 303.328 3.29263 304.361 3.29191C305.662 3.29118 315.319 3.30075 315.819 3.3059C316.155 3.30949 316.545 3.30913 316.711 3.31896C316.569 3.32887 316.426 3.3388 316.283 3.34874C314.804 3.31718 315.401 3.35513 315.008 3.35833C314.44 3.36293 312.297 3.36165 311.778 3.37133C311.594 3.37484 312.017 3.39505 311.024 3.40776C309.96 3.42142 309.486 3.38457 309.062 3.43697C307.551 3.38246 306.099 3.44636 307.849 3.45921C308.826 3.4665 318.408 3.4664 320.365 3.46507C321.952 3.46406 324.923 3.44311 326.874 3.44272C328.021 3.4425 330.845 3.43897 330.726 3.46462C331.744 3.46555 330.666 3.44265 330.88 3.43865C331.327 3.43039 334.504 3.44094 335.105 3.43889C338.071 3.42897 341.813 3.39399 344.694 3.41836C344.56 3.42511 344.426 3.43188 344.292 3.43865C343.644 3.45204 340.641 3.44166 340.302 3.47398C344.694 3.46366 349.086 3.45334 353.478 3.44302C353.397 3.41761 358.844 3.40585 359.102 3.41647C359.006 3.42877 358.911 3.44108 358.815 3.45341C355.737 3.41469 356.013 3.47521 353.946 3.44752C353.104 3.44904 353.358 3.46886 352.943 3.47377C348.816 3.52281 352.877 3.43177 349.718 3.45775C350.669 3.48543 348.081 3.50285 346.922 3.50972C346.658 3.51126 343.192 3.51229 342.78 3.51379C340.468 3.52227 336.497 3.54984 334.201 3.53829C332.391 3.54075 331.395 3.56616 329.752 3.57585C328.505 3.58319 328.863 3.56598 328.276 3.5673C327.044 3.56994 326.639 3.6211 325.85 3.55334C325.016 3.56414 324.181 3.57501 323.346 3.58596C323.346 3.57502 323.346 3.56408 323.346 3.55314C322.821 3.55444 322.297 3.55575 321.773 3.55705C321.618 3.5684 321.464 3.57977 321.31 3.59115C319.645 3.58041 320.34 3.55194 320.029 3.52138C319.67 3.52007 319.31 3.51875 318.951 3.51743C318.672 3.54223 318.394 3.5671 318.116 3.59204C316.51 3.59421 314.905 3.59634 313.3 3.59844C313.196 3.58741 313.092 3.57638 312.988 3.56533C312.985 3.57664 312.981 3.58795 312.978 3.59926C310.26 3.60854 307.541 3.61788 304.822 3.62729C304.099 3.6479 308.455 3.65034 308.785 3.6505C310.62 3.65154 315.492 3.62039 315.499 3.66029C316.639 3.62727 320.073 3.62567 321.141 3.65764C319.52 3.66013 317.899 3.66259 316.277 3.66501C316.33 3.67822 316.382 3.69142 316.434 3.70462C314.414 3.65667 314.119 3.65985 312.042 3.71759C312.04 3.69942 312.038 3.68125 312.037 3.66307C310.589 3.73063 308.029 3.6297 307.956 3.70886C307.185 3.70467 306.414 3.70044 305.643 3.69615C303.978 3.7106 306.563 3.76459 300.045 3.7598C299.596 3.75943 299.69 3.73843 299.014 3.74182C298.819 3.74278 297.704 3.77634 295.571 3.77962C295.238 3.78011 295.213 3.76195 294.867 3.76065C294.069 3.75744 292.48 3.7984 293.202 3.73714C290.042 3.72876 291.351 3.77385 290.371 3.79621C289.718 3.81111 289.849 3.77535 289.284 3.78504C288.584 3.79707 289.098 3.83136 286.296 3.82339C286.611 3.81998 286.925 3.81658 287.239 3.81319C287.081 3.8039 286.923 3.79459 286.765 3.78527C285.166 3.81352 285.317 3.77859 284.563 3.83619C283.401 3.81506 282.395 3.81598 280.805 3.8253C277.717 3.84331 279.3 3.89985 275.776 3.82814C275.205 3.84141 274.634 3.85475 274.063 3.86815C273.124 3.8465 273.883 3.81355 272.482 3.8114C273.579 3.86892 270.623 3.8555 270.123 3.91167C270.071 3.89883 270.018 3.88598 269.966 3.87313C269.653 3.87409 269.34 3.87504 269.027 3.87599C269.026 3.88646 269.025 3.89693 269.024 3.9074C268.608 3.90087 268.191 3.89431 267.774 3.88772C267.461 3.8991 267.147 3.9105 266.834 3.92193C266.319 3.90154 265.804 3.88104 265.288 3.86045C264.965 3.8599 264.641 3.85934 264.318 3.85878C264.42 3.87428 264.523 3.88977 264.625 3.90524C264.209 3.90124 263.793 3.89723 263.378 3.8932C263.862 3.91771 263.558 3.94908 262.263 3.95247C261.195 3.95525 262.398 3.8969 260.102 3.92676C259.941 3.92888 259.658 3.96882 257.487 3.98199C254.884 3.99777 256.149 3.96502 255.685 3.96552C255.594 3.96564 254.799 3.98812 254.054 3.99343C253.631 3.99644 253.225 3.98157 253.169 3.98179C252.908 3.98336 252.832 4.00654 252.471 4.00855C251.554 4.01355 250.322 4.00628 249.424 4.01035C249.016 4.01217 248.631 4.02717 248.449 4.02794C248.166 4.02904 247.808 4.00917 247.522 4.01018C246.466 4.0139 244.864 4.0897 244.374 3.99339C243.36 4.08685 241.234 3.98448 241.389 4.04474C238.678 4.03019 231.445 4.1304 231.658 4.0247C230.122 4.11951 230.259 4.05402 229.616 4.05737C228.896 4.06117 229.269 4.07751 228.697 4.07858C227.362 4.08109 226.087 4.07764 224.758 4.08157C224.966 4.06624 225.175 4.05093 225.384 4.03565C223.989 4.03529 224.469 4.06791 223.046 4.07907C220.429 4.09956 221.532 4.06857 221.146 4.031C221.249 4.06809 218.164 4.07205 217.849 4.06805C217.662 4.06559 218.483 4.0144 216.593 4.03587C216.697 4.05058 216.8 4.06528 216.903 4.07996C216.043 4.06211 213.704 4.09561 213.307 4.09181C213.125 4.09013 212.15 3.97046 211.258 4.07027C211.151 4.05537 211.043 4.04046 210.935 4.02554C209.945 4.04681 208.954 4.06822 207.963 4.08977C207.805 4.0626 207.647 4.03539 207.489 4.00815C207.175 4.00906 206.86 4.00997 206.546 4.01089C206.755 4.03493 206.963 4.05894 207.172 4.08291C205.231 4.07766 202.859 4.12429 202.459 4.04149C202.044 4.05829 201.628 4.07514 201.212 4.09203C200.942 4.06483 200.671 4.03758 200.4 4.01027C198.475 4.02287 198.443 4.04179 197.127 4.07587C197.179 4.05362 197.23 4.03137 197.281 4.00914C196.311 4.04288 194.538 4.07718 193.137 4.08534C192.471 4.08918 191.327 4.06172 191.17 4.06496C191.012 4.06824 189.449 4.19484 189.28 4.08983C186.98 4.14358 185.968 4.09876 185.035 4.10263C184.429 4.10522 184.152 4.13169 183.467 4.13644C182.487 4.14328 181.501 4.13381 180.935 4.1373C180.612 4.13936 180.551 4.16478 180.328 4.16626C179.274 4.17338 179.892 4.14565 178.78 4.15072C178.677 4.15131 177.864 4.18476 176.948 4.18364C176.436 4.18306 175.111 4.1521 174.995 4.15251C174.476 4.15463 174.89 4.22373 173.119 4.14788C173.17 4.16111 173.221 4.17434 173.273 4.18757C171.08 4.22841 170.734 4.16959 170.291 4.16673C170.234 4.16655 169.7 4.19142 169.381 4.18921C168.841 4.18539 168.624 4.15413 168.504 4.15307C168.083 4.14941 166.665 4.16779 165.739 4.13947C165.933 4.2301 162.686 4.2734 161.966 4.17112C161.392 4.19343 160.817 4.21582 160.242 4.23829C159.982 4.22183 159.722 4.20535 159.462 4.18884C159.304 4.20655 159.146 4.22427 158.987 4.24201C158.15 4.20664 157.312 4.17105 156.474 4.13524C156.421 4.17365 156.367 4.21208 156.314 4.25052C156.079 4.2469 155.845 4.24327 155.61 4.23964C155.427 4.20974 155.244 4.1798 155.061 4.14983C154.768 4.1565 154.475 4.16318 154.181 4.16987C154.109 4.19219 154.036 4.21453 153.964 4.23688C152.387 4.26746 153.197 4.0528 150.194 4.24844C149.727 4.23229 149.26 4.21608 148.793 4.19981C148.265 4.28729 147.276 4.23833 146.478 4.2504C145.916 4.25895 145.947 4.29319 145.181 4.29636C144.414 4.29953 144.442 4.2665 144.382 4.26647C143.757 4.26635 143.286 4.29691 142.827 4.29254C142.758 4.2919 142.585 4.25318 142.001 4.25244C141.417 4.2517 141.065 4.29467 140.194 4.28947C139.748 4.28684 139.62 4.25394 139.224 4.25217C137.339 4.2431 135.441 4.41949 134.027 4.22152C133.708 4.24797 131.397 4.3451 130.408 4.34313C128.869 4.33965 129.462 4.29768 128.85 4.2922C128.763 4.29135 128.294 4.30634 127.003 4.30783C126.772 4.30809 126.826 4.33069 126.793 4.33109C125.288 4.33533 122.366 4.32624 120.714 4.32796C120.566 4.328 119.793 4.39491 118.483 4.31214C116.541 4.38252 112.885 4.25439 110.324 4.36001C109.969 4.36318 109.538 4.34098 109.381 4.34225C108.027 4.3535 108.523 4.424 105.463 4.32798C105.711 4.36392 104.995 4.39923 103.984 4.39958C102.463 4.40006 103.544 4.32801 102.321 4.33726C102.321 4.35669 102.321 4.37613 102.321 4.39557C99.51 4.35174 98.9507 4.43681 96.1296 4.44625C95.1149 4.44959 93.616 4.41046 93.3741 4.41104C93.2805 4.41143 92.1707 4.46262 92.0648 4.46334C91.4678 4.46666 91.1308 4.44563 90.6156 4.4471C88.9129 4.45182 86.8811 4.52102 87.2486 4.40584C86.7805 4.43131 86.3123 4.45685 85.8442 4.48245C84.0754 4.36561 82.7527 4.53853 82.382 4.42044C82.0658 4.44604 81.7495 4.47167 81.4332 4.49736C73.8471 4.5087 66.261 4.5195 58.6748 4.52976C58.3732 4.57082 55.0651 4.56695 54.8955 4.56115C54.1165 4.53505 54.9393 4.44436 53.3497 4.46919C53.1738 4.50843 52.9979 4.5477 52.8219 4.58701C50.824 4.60593 51.785 4.56429 50.9964 4.54035C50.6669 4.54615 50.7733 4.57601 50.3274 4.5796C47.9083 4.59916 42.9482 4.61621 40.3029 4.62702C39.7695 4.62922 39.85 4.60019 39.6843 4.60063C39.2289 4.60228 38.3301 4.64142 37.4161 4.64435C31.7644 4.66196 23.756 4.66653 18.0665 4.65229C17.6801 4.65129 17.6322 4.61577 17.3715 4.61476C17.0101 4.61352 16.2029 4.64484 15.8228 4.64298C15.4648 4.64132 15.2354 4.61482 14.8524 4.61278C13.0993 4.60302 10.7424 4.65652 8.8668 4.581C8.70907 4.57474 6.74401 4.43415 6.69955 4.42456C6.43879 4.36814 8.18504 4.27486 5.31671 4.19796C7.8803 4.11933 7.07945 3.99335 3.7493 3.93614C5.41957 3.91685 7.08983 3.89769 8.7601 3.87867C8.7625 3.86349 8.76491 3.8483 8.76731 3.83312C7.24684 3.76037 5.73833 3.73734 3.42631 3.73372C3.4984 3.71944 3.5705 3.70515 3.6426 3.69088C5.68466 3.61726 8.14804 3.60109 9.70314 3.50367C7.42245 3.43536 5.14175 3.36623 2.86106 3.29629C2.97497 3.28502 3.08889 3.27374 3.2028 3.26248C4.2961 3.23266 6.68418 3.2142 7.59212 3.18681C11.0598 3.08266 4.55716 3.11143 5.62529 3.04815C9.28641 3.0492 12.9475 3.05022 16.6087 3.05119C16.737 3.00658 2.65253 2.88237 2.79761 2.74098C3.94829 2.73178 5.09897 2.72263 6.24966 2.71354C5.7368 2.67801 5.22394 2.64239 4.71109 2.60669C4.8524 2.5955 4.99371 2.58433 5.13502 2.57316C7.07638 2.5465 9.01773 2.52011 10.9591 2.49398C5.05669 2.51789 2.3138 2.49717 0.9 2.21428C1.06006 2.20729 1.22011 2.2003 1.38017 2.19332C2.65882 2.37062 8.6945 2.31835 11.9021 2.28722C11.2484 2.23594 8.42402 2.27232 7.82715 2.24112C7.65802 2.23215 8.24784 2.19742 7.85599 2.17888C6.83186 2.13081 2.46765 2.06431 3.10187 2.00692C3.51028 1.96994 10.5324 1.9297 11.9021 1.93583C8.69143 1.86465 5.38327 1.83992 2.16315 1.75248C4.19573 1.64222 5.99585 1.5076 9.70602 1.50999C10.8369 1.4539 2.98271 1.35285 2.8005 1.31948C4.15978 1.28797 5.51906 1.25669 6.87835 1.22565C5.72863 1.2318 4.57891 1.238 3.42919 1.24425C3.42583 1.23257 3.42246 1.22089 3.4191 1.20921C6.39738 1.16304 9.12212 1.07253 12.5308 1.08942C12.4209 1.02832 10.3813 1.02808 9.39168 1.0245ZM335.576 3.59826C335.645 3.62102 334.395 3.62082 333.692 3.62237C333.798 3.62628 333.903 3.63018 334.009 3.63408C332.507 3.63408 329.712 3.63296 329.608 3.67887C328.537 3.68776 329.011 3.64664 328.665 3.64312C328.53 3.64165 327.132 3.66899 326.013 3.64382C325.748 3.64468 325.482 3.64555 325.216 3.64642C325.165 3.66174 325.113 3.67706 325.062 3.6924C324.691 3.67508 324.32 3.65769 323.95 3.64023C327.824 3.62611 331.697 3.61213 335.571 3.59828C335.573 3.59827 335.574 3.59827 335.576 3.59826ZM296.965 3.72671C295.555 3.72132 293.394 3.71226 293.83 3.75726C294.721 3.75224 295.613 3.74723 296.504 3.74225C296.658 3.73706 296.811 3.73188 296.965 3.72671ZM156.638 4.0726C155.46 4.01022 154.375 4.06981 152.553 4.06286C152.556 4.07682 152.558 4.09077 152.561 4.10473C153.306 4.06917 155.275 4.08608 156.638 4.0726ZM370.578 3.3703C370.838 3.37241 371.098 3.37452 371.357 3.37662C370.301 3.41789 370.113 3.39098 368.919 3.39748C368.847 3.39788 368.872 3.40681 368.847 3.40692C368.555 3.40822 368.284 3.39802 368.02 3.39879C367.512 3.40029 367.097 3.41228 366.195 3.41402C365.498 3.41533 365.491 3.39787 365.246 3.39888C365.037 3.39966 362.968 3.45302 361.637 3.43529C359.105 3.40069 369.806 3.36828 370.578 3.3703ZM378.084 3.38485C377.833 3.38559 377.583 3.38633 377.333 3.38708C378.086 3.35984 376.566 3.36716 375.451 3.37021C375.485 3.34545 377.844 3.35084 378.9 3.34128C378.628 3.35575 378.356 3.37028 378.084 3.38485ZM346.416 3.39965C347.396 3.39476 347.232 3.42966 347.191 3.44006C346.879 3.44077 346.568 3.44148 346.256 3.44219C346.309 3.428 346.362 3.41382 346.416 3.39965ZM353.785 3.37234C353.481 3.39582 351.353 3.41057 350.345 3.41472C350.301 3.41482 350.578 3.40149 349.865 3.40422C349.651 3.40496 347.544 3.45639 348.008 3.40231C349.933 3.39219 351.858 3.3822 353.783 3.37235C353.784 3.37235 353.784 3.37234 353.785 3.37234ZM355.934 3.3813C355.533 3.38928 355.132 3.39729 354.731 3.40533C354.524 3.39509 354.317 3.38481 354.11 3.37451C354.566 3.37086 355.022 3.36721 355.478 3.36358C355.63 3.3695 355.782 3.37541 355.934 3.3813ZM54.336 3.95552C54.4292 3.98048 54.5225 4.00543 54.6157 4.03037C54.977 4.04491 56.7334 3.93209 56.1774 3.91212C55.5636 3.92654 54.9498 3.94101 54.336 3.95552ZM46.9186 3.91693C46.5533 3.90477 46.188 3.89258 45.8227 3.88037C45.4026 3.92446 44.9825 3.96865 44.5624 4.01293C46.3873 4.03845 48.329 4.06769 48.0159 3.94117C48.4336 3.94035 48.8513 3.93954 49.269 3.93872C48.9172 3.9919 48.9645 4.00919 50.0577 4.04013C50.2968 3.96669 51.4271 4.00151 52.721 3.98286C51.7799 3.98055 50.8388 3.97821 49.8977 3.97585C49.8977 3.96299 49.8977 3.95013 49.8977 3.93727C51.9954 3.93787 49.3882 3.86126 48.0217 3.91505C47.914 3.89807 47.8063 3.88108 47.6987 3.86408C47.4386 3.88167 47.1786 3.89929 46.9186 3.91693ZM198.545 3.64661C198.284 3.63764 198.024 3.62865 197.764 3.61965C196.757 3.74529 198.808 3.62415 200.269 3.71852C199.787 3.64556 202.013 3.64427 202.141 3.63909C201.885 3.61483 201.628 3.59052 201.372 3.56617C200.43 3.5928 199.487 3.61962 198.545 3.64661ZM191.173 3.57435C192.075 3.63527 187.646 3.64762 186.16 3.63645C185.798 3.6337 185.154 3.59998 184.894 3.60485C184.735 3.61804 184.577 3.63125 184.419 3.64447C184.232 3.60013 181.33 3.6557 180.187 3.68233C180.079 3.66611 179.972 3.64988 179.864 3.63363C179.447 3.64093 179.031 3.64825 178.614 3.65558C178.666 3.63905 178.719 3.62252 178.771 3.606C178.456 3.62632 178.14 3.64668 177.825 3.66709C176.587 3.69152 177.351 3.60015 176.421 3.62991C175.387 3.66307 177.081 3.7135 177.049 3.74833C177.888 3.73756 179.796 3.71363 180.647 3.71094C181.136 3.70947 180.582 3.77229 182.689 3.69708C183.151 3.71266 183.613 3.72819 184.074 3.74366C184.922 3.71571 185.77 3.68792 186.618 3.66029C186.776 3.68259 186.934 3.70487 187.093 3.72713C187.183 3.73042 189.144 3.67525 189.039 3.65863C189.833 3.70008 191.464 3.70427 193.182 3.70289C193.347 3.69044 193.513 3.67802 193.678 3.6656C192.017 3.69504 193.149 3.65385 192.654 3.63162C192.368 3.61879 191.494 3.59408 191.173 3.57435ZM65.9106 3.86848C63.1209 3.94495 64.8481 3.88299 61.8327 3.88868C62.0432 3.92619 62.2538 3.96365 62.4643 4.00106C63.9469 3.92883 66.3863 3.96981 65.9135 3.86847C65.9125 3.86847 65.9116 3.86848 65.9106 3.86848ZM36.4038 4.05603C37.9995 4.02868 37.1988 3.96871 39.2214 3.94511C39.2224 3.94511 39.2233 3.9451 39.2243 3.9451C38.1784 3.9427 37.1325 3.94028 36.0866 3.93783C36.1923 3.97725 36.2981 4.01665 36.4038 4.05603ZM129.685 3.81834C131.215 3.82959 130.914 3.80455 132.303 3.85295C134.37 3.7865 132.62 3.79897 132.62 3.74248C132.147 3.75992 131.675 3.77741 131.202 3.79495C130.057 3.74423 131.143 3.71545 131.143 3.7104C131.142 3.7104 131.141 3.7104 131.14 3.7104C131.14 3.69341 131.177 3.68978 130.738 3.68026C130.387 3.72619 130.036 3.77221 129.685 3.81834ZM136.233 3.73585C135.709 3.77401 135.473 3.82243 136.852 3.84332C136.853 3.84332 136.854 3.84332 136.855 3.84331C136.965 3.76009 138.288 3.82438 138.891 3.81752C139.049 3.80821 139.207 3.79891 139.365 3.78962C138.321 3.77183 137.277 3.75391 136.233 3.73585ZM159.305 3.61973C159.31 3.70693 158.153 3.71772 159.782 3.79476C160.098 3.79253 160.414 3.79031 160.731 3.78808C160.938 3.76855 161.146 3.74904 161.354 3.72955C165.365 3.878 166.562 3.60939 159.782 3.72222C159.781 3.72228 159.78 3.72235 159.779 3.72241C159.621 3.68822 159.463 3.65399 159.305 3.61973ZM152.239 3.63941C152.188 3.68605 152.137 3.73271 152.086 3.77938C151.2 3.66868 150.056 3.77843 148.318 3.70198C148.161 3.71656 148.004 3.73114 147.847 3.74574C147.198 3.71563 140.82 3.71832 142.202 3.78896C142.805 3.81966 144.119 3.77364 144.232 3.77442C144.615 3.77724 145.115 3.81686 145.762 3.81313C146.136 3.8109 146.924 3.76169 147.687 3.76029C149.393 3.7575 152.506 3.87684 154.749 3.75318C154.911 3.76681 155.072 3.78043 155.234 3.79403C156.898 3.78201 156.343 3.73926 157.891 3.78846C158.961 3.56785 151.666 3.81175 153.185 3.63027C153.184 3.63027 153.183 3.63027 153.182 3.63028C152.868 3.63331 152.553 3.63636 152.239 3.63941ZM106.409 3.7921C106.309 3.74853 104.378 3.81972 104.832 3.7138C104.202 3.75148 103.572 3.7893 102.941 3.82725C102.946 3.83705 102.951 3.84685 102.956 3.85665C103.582 3.84769 104.208 3.83875 104.835 3.82984C104.837 3.84534 104.84 3.86084 104.842 3.87633C105.775 3.81836 109.67 3.83523 109.551 3.88972C109.759 3.86632 109.968 3.84294 110.176 3.8196C112.039 3.87823 113.641 3.80896 115.671 3.86523C115.828 3.84611 115.985 3.82701 116.143 3.80793C116.245 3.82288 116.347 3.83782 116.45 3.85275C117.189 3.85315 117.928 3.85353 118.667 3.85391C121.076 3.78858 116.396 3.7189 115.828 3.72866C115.753 3.73005 115.764 3.76927 115.293 3.77634C114.456 3.78885 109.771 3.75817 108.323 3.78709C108.31 3.76067 108.298 3.73426 108.285 3.70785C107.66 3.73583 107.035 3.76391 106.409 3.7921ZM168.256 3.69577C168.362 3.71922 168.468 3.74266 168.573 3.76609C170.398 3.73869 171.547 3.75695 171.08 3.68014C171.079 3.68014 171.078 3.68014 171.077 3.68014C170.137 3.68533 169.196 3.69054 168.256 3.69577ZM303.877 3.44759C303.829 3.41527 302.956 3.40464 301.829 3.43018C301.883 3.43956 301.938 3.44894 301.992 3.45831C302.579 3.42937 303.312 3.47629 305.125 3.46611C305.125 3.44985 305.125 3.43359 305.125 3.41734C304.709 3.42738 304.293 3.43747 303.877 3.44759ZM166.682 3.68853C166.125 3.6615 164.564 3.74975 165.592 3.7519C166.377 3.75344 166.98 3.70298 166.682 3.68853ZM30.127 4.00915C30.5394 4.01482 30.9518 4.02048 31.3642 4.02613C31.579 3.99926 31.7939 3.97242 32.0087 3.94561C32.0078 3.94562 32.0068 3.94562 32.0059 3.94562C31.3796 3.96673 30.7533 3.98791 30.127 4.00915ZM124.455 3.83324C125.854 3.82715 127.253 3.82108 128.651 3.81505C128.665 3.8007 128.679 3.78636 128.693 3.77202C127.292 3.82705 126.729 3.77179 126.402 3.76891C126.403 3.7689 126.405 3.7689 126.406 3.7689C125.357 3.75952 124.358 3.753 123.365 3.73754C123.729 3.76951 124.092 3.80142 124.455 3.83324ZM119.661 3.75102C119.897 3.85368 120.204 3.86472 122.353 3.78837C122.268 3.77592 122.183 3.76346 122.098 3.75099C120.984 3.7606 120.335 3.78561 120.53 3.73159C120.241 3.73805 119.951 3.74453 119.661 3.75102ZM141.564 3.74191C141.306 3.71106 139.26 3.74643 139.371 3.76213C139.415 3.7684 142.067 3.80233 141.564 3.74191ZM319.414 3.40345C318.942 3.39993 318.471 3.39639 317.999 3.39282C318.626 3.38502 319.253 3.37726 319.881 3.36955C319.725 3.38083 319.569 3.39213 319.414 3.40345ZM324.59 3.30868C324.926 3.31566 323.833 3.37133 325.843 3.38131C324.381 3.38522 322.918 3.38914 321.455 3.39308C322.141 3.38301 322.827 3.37301 323.513 3.36307C323.393 3.34783 323.274 3.33257 323.154 3.3173C323.633 3.31442 324.111 3.31155 324.59 3.30868ZM326.16 3.34517C325.373 3.30591 329.52 3.2962 329.907 3.30046C329.993 3.3015 330.402 3.33107 330.553 3.33728C329.926 3.33843 329.3 3.33957 328.674 3.34072C328.883 3.34993 329.093 3.35912 329.302 3.36828C328.569 3.37293 327.836 3.3776 327.104 3.3823C327.417 3.37203 327.73 3.36179 328.044 3.35159C327.416 3.34947 326.788 3.34733 326.16 3.34517ZM309.52 3.38502C310.045 3.38515 310.569 3.38527 311.093 3.38539C310.989 3.36964 310.884 3.35388 310.779 3.3381C310.465 3.33862 310.151 3.33914 309.838 3.33966C309.732 3.35476 309.626 3.36988 309.52 3.38502ZM320.205 3.3458C319.442 3.42176 317.361 3.262 319.793 3.31847C320.038 3.3242 320.277 3.33849 320.205 3.3458ZM331.461 3.30645C333.092 3.25185 332.724 3.36698 331.184 3.33617C331.107 3.33451 331.339 3.31049 331.461 3.30645ZM343.686 3.28454C343.818 3.28472 344.049 3.31975 345.31 3.28395C345.518 3.28763 345.726 3.29131 345.934 3.29497C345.447 3.31212 341.28 3.32955 341.856 3.293C342.494 3.29137 343.026 3.28453 343.686 3.28454ZM339.651 3.15763C339.026 3.15935 338.401 3.16108 337.775 3.16282C337.982 3.17397 338.188 3.1851 338.394 3.1962C338.086 3.19969 337.779 3.20319 337.471 3.2067C336.945 3.18773 336.42 3.16864 335.894 3.14944C337.253 3.14477 338.612 3.14016 339.972 3.13559C339.865 3.14293 339.758 3.15027 339.651 3.15763ZM323.026 3.14715C324.229 3.16093 325.703 3.14335 327.657 3.14386C327.658 3.1439 327.659 3.14394 327.66 3.14397C327.758 3.14404 327.93 3.16009 328.244 3.16038C328.511 3.16051 333.789 3.13724 333.377 3.16465C331.335 3.19131 330.573 3.15514 330.083 3.2164C329.983 3.20374 329.884 3.19106 329.784 3.17837C327.821 3.15842 327.26 3.20362 326.158 3.22161C326.162 3.21183 326.166 3.20204 326.171 3.19226C325.434 3.19218 324.698 3.1921 323.961 3.192C324.065 3.19836 324.169 3.20471 324.273 3.21105C324.013 3.21138 323.752 3.21172 323.491 3.21205C322.857 3.18362 322.052 3.17758 323.026 3.14715ZM342.488 3.16954C343.066 3.09908 348.699 3.14076 351.272 3.12346C349.921 3.16566 347.828 3.14009 346.355 3.1412C343.507 3.14361 345.476 3.16689 344.992 3.17861C344.754 3.18452 343.138 3.14185 342.488 3.16954ZM318.631 3.16509C320.051 3.16964 320.846 3.15143 322.074 3.17769C321.971 3.1833 321.868 3.18892 321.765 3.19455C321.345 3.19008 317.915 3.17805 318.631 3.16509ZM355.043 3.13682C352.3 3.1159 353.653 3.17507 352.227 3.13114C353.165 3.1272 354.104 3.12329 355.043 3.11942C355.043 3.12522 355.043 3.13102 355.043 3.13682ZM163.542 3.25314C162.387 3.25154 161.096 3.23109 160.405 3.27631C161.19 3.28245 161.976 3.28855 162.761 3.29462C163.021 3.28077 163.282 3.26694 163.542 3.25314ZM196.503 2.8229C196.239 2.81305 195.195 2.84202 195.085 2.84203C194.881 2.84203 194.937 2.8277 194.934 2.82396C193.597 2.82648 194.83 2.87101 193.841 2.88074C193.672 2.88238 191.347 2.86041 190.402 2.86222C188.947 2.86507 187.495 2.8622 186.951 2.863C186.034 2.86426 184.331 2.8985 182.823 2.9005C182.201 2.90126 181.984 2.87375 181.359 2.87447C177.347 2.87909 169.449 2.91879 165.89 2.90126C165.011 2.89688 164.172 2.85938 163.707 2.86244C163.34 2.87619 162.973 2.88997 162.607 2.90379C161.479 2.7798 161.102 2.89007 159.886 2.90196C159.113 2.90942 158.752 2.87241 158.649 2.8725C157.961 2.87326 157.621 2.89096 157.081 2.89395C156.475 2.89726 155.604 2.88052 155.387 2.88357C155.254 2.88563 155.679 2.93514 153.326 2.93467C150.929 2.93414 148.562 2.92926 146.124 2.92729C146.937 3.07992 147.637 2.975 148.633 2.96931C148.9 2.96775 148.73 2.99193 148.963 2.99079C149.62 2.98769 150.876 2.96372 151.42 2.96931C152.007 2.97533 151.806 3.03092 152.55 3.01018C152.588 3.00911 152.469 2.98623 152.644 2.98234C154.404 2.94401 154.979 2.98367 157.204 2.9841C158.677 2.98436 167.627 2.95977 167.935 2.97418C169.537 3.05085 160.106 3.05585 159.003 3.05009C158.617 3.04807 159.022 3.02296 158.67 3.0183C158.521 3.01642 157.18 3.06462 155.855 3.0693C154.253 3.07497 151.033 3.04357 149.507 3.04532C136.381 3.06138 123.437 3.03648 110.324 3.04045C110.045 3.04055 109.676 3.07232 108.765 3.07275C91.7629 3.08019 74.1408 3.06079 56.9214 3.08419C53.1673 3.08926 49.4441 3.12443 45.6554 3.09962C45.1853 3.1259 44.7153 3.15225 44.2452 3.17866C45.4476 3.15725 47.6509 3.21484 47.8515 3.21551C47.9238 3.21572 48.3796 3.18616 49.1147 3.18727C50.1483 3.18873 50.6016 3.21371 50.6864 3.21365C50.9493 3.21356 50.777 3.18681 51.0281 3.18679C52.9006 3.18681 54.3493 3.17834 56.0678 3.17708C58.009 3.17574 58.993 3.22432 60.4066 3.16943C60.5667 3.1904 60.7267 3.21134 60.8868 3.23227C61.943 3.14045 68.2323 3.14741 70.7801 3.15063C71.5839 3.15169 71.4429 3.18799 71.713 3.18782C71.8855 3.18767 71.8174 3.1403 73.9206 3.14844C74.9794 3.15256 75.257 3.1867 75.788 3.18525C76.0764 3.18441 76.0296 3.15046 76.4441 3.15023C78.841 3.14888 80.7982 3.15872 83.1448 3.16352C83.8046 3.16483 83.8118 3.19276 83.9595 3.1923C84.5031 3.19067 85.4486 3.14287 86.8305 3.14225C89.105 3.14119 93.6381 3.13891 95.4981 3.16024C95.7714 3.1634 95.9978 3.19601 96.1988 3.19539C96.5032 3.19434 96.6226 3.16014 96.6761 3.15993C97.694 3.15872 97.0816 3.19078 97.7634 3.18264C98.1309 3.17825 98.5141 3.13922 99.3683 3.13438C100.496 3.12799 100.274 3.17396 100.745 3.16908C100.795 3.16833 100.81 3.13646 101.273 3.13515C103.029 3.13038 105.577 3.12169 107.238 3.12091C107.716 3.12066 108.071 3.14161 108.737 3.14157C110.078 3.14141 117.703 3.12378 118.329 3.13536C118.395 3.13655 117.716 3.18238 118.797 3.18029C119.111 3.16121 119.425 3.14216 119.739 3.12316C120.264 3.153 120.789 3.18276 121.313 3.21241C121.295 3.10846 124.382 3.09113 124.352 3.19654C124.689 3.20057 125.027 3.20459 125.365 3.20861C126.069 3.13541 126.537 3.16191 127.897 3.11858C128.109 3.14064 128.321 3.16267 128.533 3.18467C128.587 3.16987 128.64 3.15507 128.693 3.14027C129.419 3.21975 130.609 3.13871 130.754 3.13825C131.31 3.13616 131.727 3.15611 131.988 3.15529C132.962 3.15252 135.07 3.12357 136.207 3.13571C136.261 3.13633 136.208 3.17003 136.532 3.17396C137.115 3.18103 137.172 3.13188 137.951 3.18903C138.108 3.17444 138.265 3.15986 138.422 3.1453C138.589 3.15268 138.756 3.16005 138.923 3.16741C139.907 3.16291 140.891 3.15843 141.876 3.15398C140.98 3.21095 142.011 3.24158 142.985 3.19659C143.314 3.18136 143.022 3.1474 143.132 3.14214C143.282 3.13507 147.7 3.14964 147.992 3.17123C148.202 3.16043 148.411 3.14964 148.62 3.13887C148.725 3.16008 148.831 3.18128 148.937 3.20246C149.052 3.19494 149.168 3.18742 149.283 3.1799C150.433 3.21634 153.417 3.12879 153.958 3.13532C154.247 3.13871 153.987 3.22853 155.372 3.21823C155.42 3.19365 155.468 3.16908 155.517 3.14451C155.834 3.14079 156.151 3.13708 156.468 3.13337C157.064 3.13521 157.93 3.17694 157.958 3.20581C158.144 3.18832 158.33 3.17084 158.516 3.15338C159.015 3.20953 161.679 3.18729 162.751 3.15123C163.064 3.16788 163.378 3.1845 163.691 3.20108C164.112 3.18029 164.533 3.15956 164.954 3.13888C165.93 3.1321 164.899 3.16668 165.107 3.16937C165.547 3.17483 167.788 3.1163 167.641 3.18734C167.946 3.18728 168.252 3.18723 168.558 3.18717C168.715 3.16681 168.872 3.14648 169.029 3.12617C169.554 3.19548 170.462 3.17023 172.324 3.19406C172.48 3.17802 172.636 3.16199 172.793 3.14598C173.368 3.16819 173.944 3.19031 174.52 3.21234C174.638 3.18601 174.757 3.15971 174.875 3.13343C175.125 3.1295 175.376 3.12557 175.626 3.12166C176.135 3.17987 177.048 3.11602 177.514 3.13982C178.192 3.17446 177.667 3.21659 176.408 3.22583C176.502 3.26836 180.255 3.24523 181.12 3.24142C181.063 3.23324 181.006 3.22507 180.948 3.21689C180.063 3.22416 179.179 3.23148 178.294 3.23884C177.552 3.13274 179.955 3.15959 181.058 3.14514C181.159 3.14375 181.73 3.10327 182.842 3.10635C183.272 3.10763 184.951 3.16475 185.271 3.16767C187.859 3.19212 185.956 3.11099 188.488 3.18142C187.961 3.1265 189.415 3.17138 190.93 3.15955C191.187 3.15749 193.373 3.11156 193.521 3.11037C194.441 3.10269 193.439 3.1516 194.771 3.13811C194.931 3.12534 195.091 3.11258 195.251 3.09984C195.561 3.09965 195.871 3.09946 196.181 3.09927C198.062 3.21034 198.5 3.1272 199.169 3.11633C199.439 3.11189 199.091 3.14124 199.792 3.1346C200.056 3.13212 200.348 3.10775 201.058 3.10562C203.279 3.09918 204.033 3.20073 206.074 3.0931C206.388 3.10829 206.701 3.12344 207.015 3.13856C207.226 3.12 207.438 3.10148 207.649 3.08299C209.267 3.13524 208.683 3.08107 209.267 3.0814C210.81 3.08218 213.967 3.09069 214.243 3.13365C215.575 3.03361 217.167 3.14434 217.692 3.13992C218.004 3.12774 218.316 3.11558 218.628 3.10345C218.995 3.11519 219.362 3.12689 219.728 3.13856C219.55 3.04256 221.449 3.13581 221.632 3.13699C221.842 3.13821 224.763 3.10793 225.851 3.10777C226.937 3.10761 228.829 3.13175 228.996 3.13164C229.187 3.13147 231.036 3.10471 232.481 3.10403C233.746 3.10365 241.237 3.13346 240.765 3.09325C240.275 3.08236 239.577 3.07303 238.974 3.06809C237.102 3.05317 226.112 3.03761 223.303 3.03201C217.67 3.02116 211.796 3.02625 206.138 3.01903C205.805 3.01862 205.754 2.99282 205.469 2.99233C205.035 2.99172 203.935 3.01807 203.508 3.01771C201.912 3.01613 199.97 3.01264 199.116 3.01231C197.206 3.01176 195.896 2.99635 194.451 2.99425C193.998 2.99358 191.711 3.02755 190.144 3.0142C189.86 3.00677 189.576 2.99932 189.291 2.99185C190.099 2.98271 192.217 2.95937 193.201 2.95655C194.664 2.95246 195.427 2.97376 195.968 2.97321C196.42 2.97275 198.732 2.94778 199.785 2.94699C200.111 2.94673 200.178 2.97417 200.458 2.97399C201.975 2.97288 203.974 2.97146 205.29 2.94455C204.753 2.9534 208.108 2.96906 208.283 2.96888C208.585 2.96877 208.912 2.94353 209.528 2.9434C210.712 2.94318 210.562 2.99543 212.041 2.94281C212.407 2.95793 212.774 2.973 213.14 2.98803C213.163 2.91891 217.791 3.01105 219.107 2.92758C219.141 2.91832 213.127 2.89237 212.631 2.89095C209.653 2.88283 205.246 2.90056 202.356 2.88842C201.486 2.88483 198.751 2.84136 198.545 2.8421C198.212 2.84333 198.512 2.86834 198.369 2.86923C195.426 2.88804 196.894 2.8375 196.503 2.8229ZM326.158 3.11137C325.264 3.11017 324.37 3.10895 323.476 3.10772C323.54 3.09672 323.605 3.08574 323.67 3.07475C324.08 3.07868 324.489 3.08259 324.899 3.08647C325.214 3.07971 325.528 3.07297 325.843 3.06625C325.948 3.08131 326.053 3.09635 326.158 3.11137ZM328.361 3.06431C329.136 3.05831 329.174 3.08089 329.353 3.08184C329.887 3.08473 330.349 3.07523 330.867 3.07513C330.27 3.12898 328.999 3.10591 328.361 3.06431ZM312.348 3.05617C312.523 3.05888 313.69 3.11886 315.017 3.06122C316.01 3.07845 317.003 3.0955 317.996 3.11237C316.309 3.08665 313.975 3.11702 313.148 3.11678C312.834 3.11665 312.775 3.09792 312.524 3.09782C311.079 3.09744 309.674 3.14176 309.526 3.07895C310.893 3.09609 312.125 3.05292 312.348 3.05617ZM321.069 3.07154C321.3 3.084 321.531 3.09643 321.763 3.10882C320.927 3.10958 320.092 3.11034 319.256 3.1111C319.482 3.09802 319.708 3.08498 319.934 3.07196C320.312 3.07182 320.691 3.07168 321.069 3.07154ZM256.802 3.07019C257.318 3.07005 257.833 3.06991 258.348 3.06978C258.32 3.05855 257.73 3.05895 257.513 3.05147C257.514 3.05147 257.515 3.05147 257.516 3.05147C257.274 3.043 257.378 3.02844 256.938 3.02224C256.893 3.03821 256.848 3.0542 256.802 3.07019ZM43.6208 3.10098C42.7571 3.10006 34.7813 3.10335 35.4608 3.17045C35.8032 3.20385 38.5311 3.17296 39.3353 3.17307C40.4195 3.17327 43.3475 3.24315 43.6208 3.10098ZM29.4954 3.09401C29.3572 3.16196 34.3419 3.16984 34.8292 3.1579C34.7257 3.14838 34.5663 3.12714 34.4284 3.12237C33.7561 3.09952 30.57 3.11206 29.4954 3.09401ZM227.947 2.96012C228.349 2.98247 228.751 3.00475 229.153 3.02695C229.047 2.99787 228.941 2.96876 228.836 2.93963C228.54 2.94644 228.244 2.95327 227.947 2.96012ZM188.968 3.00693C182.274 3.00787 175.58 3.00874 168.886 3.00953C169.475 2.99527 170.064 2.98107 170.653 2.96692C176.421 2.97045 182.572 2.98216 188.142 2.95988C188.418 2.97559 188.693 2.99128 188.968 3.00693ZM310.462 2.95464C308.747 2.95484 307.314 2.97246 305.448 2.94599C307.226 2.91926 308.107 2.95933 309.835 2.92059C309.836 2.92059 309.837 2.92059 309.838 2.92059C310.046 2.93196 310.254 2.94331 310.462 2.95464ZM272.169 2.96034C272.691 2.94213 273.212 2.924 273.734 2.90596C273.107 2.90607 272.479 2.90617 271.852 2.90627C271.958 2.92432 272.064 2.94234 272.169 2.96034ZM130.578 2.88597C128.784 2.94252 124.195 2.84048 122.737 2.90897C122.642 2.91353 123.509 2.94219 122.108 2.99865C123.166 2.98684 123.914 2.97495 123.993 2.93099C124.307 2.94584 124.621 2.96067 124.936 2.97547C125.457 2.96408 125.979 2.95272 126.5 2.9414C126.444 2.98497 126.485 2.9826 127.286 2.95265C127.651 2.96358 128.017 2.97448 128.382 2.98536C128.537 2.96695 128.691 2.94855 128.846 2.93018C129.162 2.95579 129.479 2.98135 129.795 3.00686C131.028 2.9787 130.277 2.92938 130.578 2.88597ZM136.858 2.89591C136.566 2.88636 128.248 2.91845 132.029 3.00364C133.011 3.00058 133.994 2.99754 134.976 2.99452C134.162 2.85342 136.84 2.97924 137.06 2.98196C138.112 2.99537 139.453 2.96165 140.216 2.96323C140.873 2.9646 141.263 2.9895 141.724 2.98871C143.297 2.98609 145.782 2.98437 146.124 2.92729C144.901 2.92631 143.659 2.92589 142.388 2.92754C141.043 2.9294 139.861 2.87467 137.335 2.95031C136.71 2.94235 136.933 2.8983 136.858 2.89591ZM275.304 2.90983C275.241 2.9511 278.416 2.94027 278.436 2.9242C278.442 2.91475 277.409 2.91517 277.261 2.9116C277.26 2.9116 277.259 2.9116 277.258 2.9116C277.196 2.91004 277.509 2.89432 277.023 2.89002C276.45 2.89659 275.877 2.90319 275.304 2.90983ZM56.026 2.94213C55.5969 2.90378 45.7942 2.9186 45.5055 2.93755C45.427 2.94278 45.5364 2.95996 45.5055 2.96989C47.7924 2.91423 51.0434 2.97895 53.2141 2.98252C53.8193 2.98352 53.6384 2.95619 53.6727 2.95567C53.6741 2.95567 53.6756 2.95567 53.677 2.95567C54.0204 2.9556 55.5706 3.02185 56.026 2.94213ZM119.597 2.93702C120.014 2.94643 120.431 2.95582 120.848 2.96518C120.953 2.94643 121.059 2.92769 121.165 2.90897C121.164 2.90897 121.163 2.90897 121.162 2.90897C120.64 2.91829 120.119 2.92764 119.597 2.93702ZM105.159 2.87595C105.261 2.88955 105.362 2.90314 105.463 2.91672C106.513 2.91847 107.562 2.9202 108.611 2.92192C108.505 2.92956 108.4 2.93721 108.294 2.94486C109.881 2.96489 110.538 2.91741 111.383 2.92412C111.382 2.92412 111.381 2.92412 111.38 2.92412C111.471 2.9249 111.581 2.95287 111.919 2.95374C112.695 2.95578 114.918 2.9656 115.187 2.93761C115.755 2.87793 111.281 2.90666 110.447 2.90407C110.07 2.90285 109.616 2.87831 109.387 2.87774C109.136 2.8772 108.793 2.91047 108.181 2.90953C108.002 2.90925 106.017 2.87014 105.159 2.87595ZM86.6387 2.919C86.9623 2.95075 87.6378 2.91994 87.886 2.92511C87.9453 2.92632 87.4841 2.95298 88.0431 2.96082C88.2013 2.94268 88.3594 2.92455 88.5175 2.90644C87.8913 2.91061 87.265 2.9148 86.6387 2.919ZM280.638 2.88972C280.547 2.88546 278.842 2.8872 278.761 2.88994C277.739 2.92672 281.269 2.92198 280.638 2.88972ZM323.647 2.84843C322.863 2.80261 332.165 2.84811 333.066 2.84542C333.021 2.87327 330.808 2.84532 331.967 2.88363C330.861 2.86262 327.804 2.87405 327.085 2.86791C326.648 2.86418 326.538 2.83954 326.472 2.83876C326.213 2.83591 323.924 2.86455 323.647 2.84843ZM340.752 2.86396C339.868 2.85887 338.984 2.85373 338.1 2.84854C339.143 2.84545 340.186 2.8424 341.229 2.83938C341.07 2.84756 340.911 2.85575 340.752 2.86396ZM341.863 2.85165C341.835 2.82553 344.835 2.84553 345.624 2.83956C344.735 2.88343 343.252 2.84207 341.863 2.85165ZM291.943 2.80818C290.561 2.78734 289.966 2.88245 291.647 2.8411C291.698 2.83973 292.001 2.80927 291.943 2.80818ZM130.151 2.68406C129.915 2.68317 126.984 2.63525 126.814 2.65834C126.278 2.73221 128.202 2.70313 128.846 2.73115C129.886 2.77646 128.357 2.81329 130.895 2.78647C130.791 2.80115 130.688 2.81584 130.584 2.83054C132.069 2.83544 131.583 2.73382 131.85 2.7208C131.931 2.71686 132.86 2.72564 133.028 2.71922C135.121 2.63835 130.37 2.68474 130.151 2.68406ZM257.724 2.79556C254.972 2.76339 256.156 2.81012 253.332 2.80696C253.237 2.83094 257.366 2.81618 257.724 2.79556ZM156.948 2.74832C154.102 2.75985 151.762 2.71876 149.107 2.77271C149.28 2.85663 157.687 2.76934 156.948 2.74832ZM23.2186 2.60925C34.2927 2.80371 47.0662 2.74072 58.8565 2.74145C60.1415 2.74147 60.2647 2.78128 60.7296 2.77702C61.0342 2.77426 60.981 2.74224 61.3857 2.74217C76.0163 2.73941 90.0253 2.70332 104.04 2.72494C104.923 2.72652 109.218 2.78995 110.135 2.69586C110.829 2.62457 107.744 2.67919 107.23 2.67845C106.843 2.67786 106.827 2.644 106.569 2.64377C106.296 2.64354 106.522 2.66678 106.205 2.66701C104.86 2.66815 103.393 2.65852 102.177 2.66004C90.2547 2.67478 78.6556 2.66563 66.7959 2.65776C65.3604 2.65687 65.6555 2.6276 65.5832 2.62745C65.5823 2.62753 65.5813 2.6276 65.5804 2.62767C57.8833 2.62127 49.0928 2.68581 40.9402 2.65717C35.1993 2.63408 29.4584 2.61035 23.7175 2.58597C23.5512 2.59372 23.3849 2.60149 23.2186 2.60925ZM136.229 2.7762C135.513 2.67974 135.353 2.77689 132.783 2.7369C132.574 2.7534 132.365 2.76992 132.155 2.78645C133.515 2.78301 134.874 2.77959 136.233 2.7762C136.232 2.7762 136.23 2.7762 136.229 2.7762ZM119.256 2.73719C118.821 2.60233 113.075 2.69549 110.487 2.66878C110.013 2.73753 113.775 2.70762 114.662 2.71511C115.105 2.71889 117.477 2.78923 119.28 2.75094C119.272 2.74636 119.264 2.74177 119.256 2.73719ZM313.915 2.72964C313.497 2.73182 313.079 2.73401 312.661 2.73622C313.707 2.74561 314.754 2.75492 315.8 2.76412C314.131 2.75789 312.461 2.75156 310.792 2.74513C311.103 2.7283 311.414 2.71152 311.725 2.69479C312.455 2.70649 313.185 2.71811 313.915 2.72964ZM308.499 2.73615C311.423 2.73083 308.371 2.77534 307.641 2.75483C307.205 2.74246 308.201 2.73672 308.499 2.73615ZM300.896 2.70308C302.259 2.67302 305.015 2.67266 304.035 2.73285C302.562 2.70373 301.612 2.72707 299.476 2.70957C299.788 2.69789 300.1 2.68624 300.411 2.67463C300.413 2.67463 300.414 2.67463 300.416 2.67463C300.576 2.68413 300.736 2.69362 300.896 2.70308ZM309.835 2.7006C311.749 2.73568 306.206 2.72158 307.949 2.69964C308.03 2.69864 309.759 2.69925 309.835 2.7006ZM35.4608 2.49555C35.2301 2.53297 36.7027 2.53308 37.1926 2.53587C39.3162 2.54813 42.0396 2.53342 44.2481 2.53977C44.0818 2.52752 43.9155 2.51525 43.7492 2.50298C40.9864 2.50051 38.2236 2.49804 35.4608 2.49555ZM51.1565 2.54382C52.6739 2.54466 54.1913 2.5455 55.7087 2.54634C55.8501 2.54641 56.5134 2.51576 56.0202 2.5079C54.399 2.51976 52.7777 2.53173 51.1565 2.54382ZM145.808 2.59616C144.644 2.5784 147.995 2.49394 147.844 2.58657C147.165 2.58975 146.487 2.59295 145.808 2.59616ZM156.634 2.56589C155.904 2.57407 155.175 2.58229 154.445 2.59056C154.444 2.58005 154.443 2.56955 154.442 2.55904C155.173 2.56133 155.903 2.56362 156.634 2.56589ZM29.4954 2.46509C30.2683 2.5115 32.112 2.50548 33.2618 2.50712C32.4699 2.46745 30.5822 2.48551 29.4954 2.46509ZM128.376 2.5476C128.47 2.57356 123.842 2.56429 125.445 2.51938C126.422 2.52884 127.399 2.53825 128.376 2.5476ZM118.976 2.50254C119.969 2.49748 120.737 2.50709 120.533 2.5483C120.007 2.54621 119.481 2.54412 118.954 2.54202C118.962 2.52886 118.969 2.5157 118.976 2.50254ZM295.706 2.65027C294.034 2.65157 292.361 2.65291 290.688 2.65428C290.75 2.64699 290.812 2.6397 290.874 2.63241C292.487 2.63115 294.1 2.62994 295.712 2.62875C295.71 2.63593 295.708 2.6431 295.706 2.65027ZM28.5495 2.34378C27.4007 2.35154 26.252 2.35936 25.1032 2.36724C26.2529 2.37725 27.4027 2.38722 28.5524 2.39713C28.5524 2.37927 28.5524 2.36141 28.5524 2.34355C28.5514 2.34362 28.5505 2.3437 28.5495 2.34378ZM318.62 2.57851C313.511 2.54203 320.031 2.51605 321.379 2.56299C321.38 2.56295 321.382 2.56291 321.383 2.56288C321.501 2.567 321.252 2.58615 321.448 2.59415C320.928 2.58492 320.408 2.57565 319.888 2.56632C319.414 2.57681 318.939 2.58736 318.465 2.59795C318.309 2.59349 318.152 2.58901 317.996 2.58453C318.204 2.58252 318.412 2.58051 318.62 2.57851ZM339.243 2.58191C343.877 2.58978 339.136 2.63062 336.842 2.59251C336.859 2.58413 338.816 2.58116 339.243 2.58191ZM327.101 2.57991C326.371 2.58351 325.64 2.58714 324.91 2.59081C324.817 2.58525 324.724 2.57968 324.631 2.5741C325.191 2.56921 325.751 2.56435 326.312 2.55952C326.575 2.56633 326.838 2.57313 327.101 2.57991ZM303.089 2.46546C301.914 2.45737 300.415 2.52168 304.188 2.5086C304.186 2.50158 304.184 2.49456 304.182 2.48754C304.032 2.48848 303.591 2.49455 303.566 2.494C303.497 2.49215 303.579 2.46878 303.089 2.46546ZM347.823 2.43244C347.955 2.4303 348.027 2.36738 349.399 2.43489C349.814 2.4316 350.229 2.42832 350.643 2.42507C350.751 2.43904 350.858 2.453 350.965 2.46694C349.36 2.45378 349.189 2.48157 349.073 2.48201C348.54 2.48388 348.934 2.46999 348.59 2.46928C347.701 2.46748 345.681 2.47426 346.597 2.43401C346.927 2.41964 347.691 2.43452 347.823 2.43244ZM344.684 2.39089C344.879 2.39657 344.251 2.41426 344.398 2.41982C344.527 2.4247 346.462 2.44683 345.938 2.47751C345.621 2.47573 345.303 2.47394 344.985 2.47214C344.878 2.46332 344.77 2.45449 344.662 2.44565C344.355 2.45318 344.047 2.46074 343.739 2.46833C343.221 2.44614 342.118 2.41629 343.428 2.40096C342.946 2.40197 342.465 2.40299 341.983 2.40402C341.734 2.41396 341.484 2.42393 341.235 2.43393C341.365 2.4183 341.496 2.40269 341.627 2.38711C342.646 2.38837 343.665 2.38963 344.684 2.39089ZM359.614 2.42284C359.555 2.43036 359.497 2.43788 359.438 2.4454C361.207 2.43418 363.961 2.43356 362.397 2.47816C360.001 2.47842 357.605 2.4788 355.209 2.47929C355.05 2.47323 354.89 2.46715 354.731 2.46106C356.519 2.4862 355.966 2.39011 357.522 2.42011C357.784 2.42517 357.023 2.45698 358.671 2.43856C358.612 2.43078 358.553 2.423 358.495 2.41521C358.868 2.41776 359.241 2.42031 359.614 2.42284ZM374.819 2.45998C371.791 2.44441 375.127 2.4241 375.686 2.44678C375.685 2.44678 375.684 2.44678 375.683 2.44678C377.216 2.50834 373.92 2.47451 373.719 2.47451C373.452 2.47451 372.829 2.51664 371.376 2.45151C372.524 2.45435 373.671 2.45717 374.819 2.45998ZM364.932 2.43218C365.186 2.43117 365.045 2.44216 365.155 2.44218C365.156 2.44218 365.157 2.44219 365.158 2.44219C366.779 2.44246 370.635 2.4394 371.053 2.4754C369.853 2.47636 364.484 2.47586 364.159 2.45053C364.417 2.4444 364.674 2.43828 364.932 2.43218ZM353.524 2.44066C352.529 2.41435 354.77 2.41495 355.357 2.42727C355.468 2.42986 354.556 2.46775 353.524 2.44066ZM277.183 2.23385C274.993 2.24913 277.87 2.27363 276.874 2.30203C277.293 2.30016 277.711 2.2983 278.129 2.29645C277.814 2.27564 277.498 2.25478 277.183 2.23385ZM177.351 1.9671C176.84 1.9614 177.082 1.98592 177.038 1.98618C176.702 1.98484 176.386 1.96461 176.258 1.96641C173.879 2.00119 175.461 2.02472 175.485 2.02942C175.535 2.05334 174.91 2.08018 175.776 2.10894C176.302 2.1014 176.828 2.09389 177.354 2.08642C177.615 2.10008 177.876 2.11372 178.137 2.12734C179.181 2.10087 177.814 2.09079 177.659 2.05292C177.6 2.03801 178.582 2.02236 177.351 1.9671ZM273.259 2.16476C272.904 2.19635 272.034 2.23576 272.889 2.26986C272.89 2.26986 272.891 2.26986 272.892 2.26986C273.05 2.2761 273.693 2.28048 273.891 2.28915C275.301 2.24852 274.761 2.20351 273.259 2.16476ZM186.782 1.9135C187.63 1.92493 188.478 1.93629 189.326 1.9476C189.312 1.97188 189.297 1.99617 189.283 2.02046C188.829 2.013 188.375 2.00551 187.922 1.99801C187.763 2.00882 187.603 2.01963 187.444 2.03047C188.008 2.05943 188.571 2.08828 189.134 2.11701C189.813 2.10851 190.492 2.10006 191.17 2.09165C190.858 2.07831 190.546 2.06493 190.235 2.05153C191.893 2.04062 191.532 2.09882 192.905 2.12365C193.375 2.10215 193.845 2.08073 194.315 2.05938C194.996 2.08305 195.676 2.10661 196.357 2.13006C197.501 2.12167 197.601 2.10503 196.831 2.07825C197.4 2.0504 198.023 2.09706 198.707 2.08656C198.764 2.08571 198.657 2.05837 198.707 2.05813C202.248 2.04688 202.06 2.11723 202.625 2.12124C203.024 2.12398 204.617 2.07943 204.643 2.06337C204.673 2.04188 201.36 1.94833 206.549 1.95771C203.866 1.89226 200.816 1.94599 202.788 2.03794C201.939 2.02737 198.195 2.04182 197.956 2.03873C197.608 2.03402 197.73 2.00063 197.294 1.99884C197.037 1.99773 196.354 2.0737 194.315 2.00192C194.055 2.01412 193.794 2.02634 193.534 2.03858C193.29 2.02762 193.045 2.01663 192.801 2.00563C193.304 1.96922 193.807 1.93294 194.31 1.89679C192.318 1.93292 190.666 1.85239 189.453 1.91444C188.405 1.90453 187.895 1.89583 188.346 1.8636C188.031 1.86285 187.716 1.86211 187.401 1.86136C187.195 1.87872 186.989 1.8961 186.782 1.9135ZM266.825 2.19868C265.783 2.16591 265.409 2.23159 265.571 2.23567C266.485 2.25793 267.368 2.21565 266.825 2.19868ZM179.242 2.01525C180.392 2.03896 181.542 2.0625 182.692 2.08586C182.692 2.05974 182.692 2.03361 182.692 2.00749C181.542 2.01003 180.392 2.01262 179.242 2.01525ZM277.503 2.18888C277.609 2.20428 277.715 2.21967 277.82 2.23505C279.08 2.18214 280.33 2.26378 280.952 2.24853C281.087 2.24523 280.815 2.21818 280.557 2.21197C280.397 2.20813 277.726 2.18424 277.503 2.18888ZM329.928 2.30068C329.459 2.30832 328.99 2.316 328.521 2.32372C328.547 2.30934 328.573 2.29496 328.599 2.28058C328.831 2.27838 329.062 2.27617 329.294 2.27398C329.505 2.2829 329.717 2.2918 329.928 2.30068ZM324.59 2.3133C323.753 2.31053 322.917 2.30775 322.08 2.30496C325.272 2.29764 322.652 2.28592 324.59 2.27075C324.59 2.28493 324.59 2.29912 324.59 2.3133ZM316.12 2.26661C316.223 2.25782 316.326 2.24903 316.429 2.24026C317.266 2.24202 318.102 2.24379 318.939 2.24555C318.41 2.21349 317.881 2.18126 317.352 2.14886C317.045 2.14803 316.738 2.14721 316.432 2.14638C316.328 2.18642 316.224 2.22649 316.12 2.26661ZM154.747 1.81582C154.241 1.81377 152.481 1.85247 152.556 1.86841C153.287 1.88933 154.018 1.91014 154.749 1.93087C154.753 1.90297 154.756 1.87506 154.76 1.84716C154.863 1.86128 154.966 1.8754 155.07 1.8895C155.485 1.87996 155.901 1.87045 156.317 1.86096C156.526 1.88573 156.736 1.91047 156.946 1.93517C157.156 1.90788 157.367 1.88064 157.577 1.85343C155.57 1.79978 155.639 1.84905 155.221 1.84764C155.009 1.84693 154.875 1.82936 154.8 1.82049C154.782 1.81894 154.764 1.81738 154.747 1.81582ZM180.037 1.8491C177.64 1.83676 176.27 1.9037 174.536 1.84104C175.648 1.96834 182.83 1.85637 185.362 1.96411C185.625 1.9451 185.888 1.92612 186.151 1.90718C184.772 1.92153 183.817 1.87902 183.144 1.87159C182.61 1.86572 182.666 1.88649 182.625 1.8861C182.623 1.8861 182.621 1.88609 182.62 1.88609C181.369 1.87477 180.983 1.85391 180.037 1.8491ZM279.284 2.11816C278.64 2.0927 277.513 2.09242 277.5 2.12767C278.127 2.13925 278.755 2.15077 279.382 2.16224C279.253 2.15299 279.394 2.12251 279.284 2.11816ZM315.147 2.1775C314.644 2.16617 313.457 2.17233 313.969 2.20056C314.061 2.20557 315.244 2.1892 314.55 2.23641C315.702 2.23806 315.433 2.18403 315.147 2.1775ZM220.997 2.03009C221.42 2.02981 221.843 2.02952 222.266 2.02924C222.365 2.01284 222.463 1.99645 222.562 1.98007C222.04 1.99668 221.519 2.01335 220.997 2.03009ZM284.72 2.10651C285.282 2.17577 286.243 2.1119 287.298 2.16981C287.688 2.17107 288.078 2.17233 288.468 2.17359C288.469 2.17359 288.47 2.1736 288.471 2.1736C288.481 2.15527 288.492 2.13694 288.502 2.11861C287.242 2.11459 285.981 2.11056 284.72 2.10651ZM194.624 1.93088C194.884 1.94252 195.145 1.95415 195.405 1.96575C195.869 1.95389 196.333 1.94207 196.797 1.93029C196.546 1.92054 196.295 1.91077 196.044 1.90098C195.571 1.91091 195.097 1.92087 194.624 1.93088ZM291.572 2.11669C290.209 2.10508 289.696 2.16219 291.44 2.16611C292.175 2.16765 293.001 2.12873 291.572 2.11669ZM128.699 1.78879C129.166 1.79734 129.633 1.80587 130.101 1.81437C130.26 1.79629 130.419 1.77822 130.578 1.76018C129.952 1.76967 129.325 1.77921 128.699 1.78879ZM321.613 2.19844C321.558 2.20933 321.503 2.22022 321.448 2.23111C321.031 2.22798 320.615 2.22485 320.198 2.2217C320.303 2.21095 320.408 2.2002 320.512 2.18947C320.879 2.19247 321.246 2.19546 321.613 2.19844ZM131.843 1.80707C132.216 1.8114 132.589 1.81572 132.963 1.82004C133.214 1.81168 133.465 1.80333 133.716 1.795C133.366 1.78539 133.017 1.77577 132.667 1.76612C132.392 1.77974 132.117 1.7934 131.843 1.80707ZM304.497 2.15223C303.972 2.13688 301.876 2.1761 303.764 2.19148C304.967 2.20118 304.575 2.15456 304.497 2.15223ZM307.324 2.14493C305.326 2.11376 306.824 2.25169 309.209 2.17009C306.808 2.17652 307.442 2.14681 307.324 2.14493ZM324.894 2.12119C324.945 2.12139 324.986 2.13968 325.388 2.14137C326.833 2.14739 328.74 2.15928 329.774 2.16293C332.259 2.17145 339.87 2.15962 340.76 2.21148C340.946 2.22235 340.519 2.25253 340.594 2.25432C340.816 2.25928 342.089 2.24707 341.853 2.26939C340.604 2.26647 339.355 2.26353 338.106 2.2606C338.412 2.24493 338.719 2.22932 339.026 2.21376C335.913 2.21508 336.943 2.2165 336.048 2.2503C335.521 2.23523 334.994 2.22008 334.468 2.20485C333.321 2.21617 332.174 2.22767 331.027 2.23934C331.287 2.22931 331.547 2.21932 331.807 2.20935C330.079 2.18567 330.559 2.19958 329.614 2.22327C329.612 2.21261 329.61 2.20194 329.608 2.19127C327.94 2.21337 327.615 2.18054 327.251 2.17924C326.503 2.17644 325.55 2.30309 322.698 2.16826C321.496 2.22744 321.523 2.10114 320.817 2.16373C318.782 2.08838 322.652 2.12374 324.483 2.13068C324.484 2.13068 324.485 2.13068 324.486 2.13069C324.625 2.13124 324.405 2.11901 324.894 2.12119ZM314.44 2.16C315.672 2.10468 310.805 2.08675 312.416 2.1758C312.656 2.17911 312.896 2.18242 313.135 2.18572C313.571 2.1771 314.007 2.16853 314.443 2.16C314.442 2.16 314.441 2.16 314.44 2.16ZM268.707 2.00669C264.199 2.02339 266.762 2.06893 268.289 2.03438C268.594 2.02757 268.761 2.01765 268.707 2.00669ZM176.612 1.77488C176.547 1.78505 176.481 1.79523 176.415 1.80541C177.927 1.7995 180.85 1.84609 180.81 1.777C179.411 1.77627 178.012 1.77556 176.612 1.77488ZM188.572 1.76058C188.247 1.75565 186.921 1.74248 187.081 1.76834C187.656 1.78785 188.231 1.80729 188.806 1.82665C189.073 1.81609 189.341 1.80555 189.609 1.79503C189.235 1.79029 188.66 1.76189 188.572 1.76058Z" fill="#FDE2D6"/>
</g>
<defs>
<filter id="filter0_g_0_51" x="0" y="0" width="379.8" height="5.56072" filterUnits="userSpaceOnUse" color-interpolation-filters="sRGB">
<feFlood flood-opacity="0" result="BackgroundImageFix"/>
<feBlend mode="normal" in="SourceGraphic" in2="BackgroundImageFix" result="shape"/>
<feTurbulence type="fractalNoise" baseFrequency="0.25 0.25" numOctaves="3" seed="7241" />
<feDisplacementMap in="shape" scale="1.7999999523162842" xChannelSelector="R" yChannelSelector="G" result="displacedImage" width="100%" height="100%" />
<feMerge result="effect1_texture_0_51">
<feMergeNode in="displacedImage"/>
</feMerge>
</filter>
</defs>
</svg>
