<svg preserveAspectRatio="none" overflow="visible" style="display: block;" width="343" height="287.991" viewBox="0 0 343 287.991" fill="none" xmlns="http://www.w3.org/2000/svg">
<g id="Image container">
<path id="Vector" d="M115.82 201.052L171.639 1.85609L227.249 201.014M251.5 287.856L227.251 201.014M115.824 201.052L91.5 287.856" stroke="#34322F"/>
<path id="Ellipse 1327" d="M264.5 217.028C264.5 208.253 246.988 200.555 220.669 196.228C206.404 193.883 189.553 192.528 171.5 192.528C153.371 192.528 136.453 193.895 122.151 196.258C95.9318 200.59 78.5 208.273 78.5 217.028C78.5 230.559 120.138 241.528 171.5 241.528C222.862 241.528 264.5 230.559 264.5 217.028Z" stroke="#34322F"/>
<path id="Ellipse 1329" d="M342.5 100.528C342.5 84.4105 310.301 70.272 261.907 62.3244C235.679 58.0169 204.694 55.528 171.5 55.528C138.166 55.528 107.059 58.038 80.761 62.379C32.552 70.3367 0.5 84.4473 0.5 100.528C0.5 125.381 77.0593 145.528 171.5 145.528C265.941 145.528 342.5 125.381 342.5 100.528Z" stroke="#34322F"/>
<path id="Ellipse 1330" d="M303.5 168.528C303.5 155.992 278.645 144.996 241.288 138.814C221.042 135.464 197.124 133.528 171.5 133.528C145.768 133.528 121.756 135.48 101.456 138.857C64.2419 145.046 39.5 156.021 39.5 168.528C39.5 187.858 98.5984 203.528 171.5 203.528C244.402 203.528 303.5 187.858 303.5 168.528Z" stroke="#34322F"/>
</g>
</svg>
